<svg width="40" height="40" viewBox="0 0 40 40" fill="none" xmlns="http://www.w3.org/2000/svg">
<path d="M20.2668 18.1166C20.1001 18.1 19.9001 18.1 19.7168 18.1166C15.7501 17.9833 12.6001 14.7333 12.6001 10.7333C12.6001 6.64998 15.9001 3.33331 20.0001 3.33331C24.0834 3.33331 27.4001 6.64998 27.4001 10.7333C27.3834 14.7333 24.2334 17.9833 20.2668 18.1166Z" stroke="#F3F6FC" stroke-width="2.5" stroke-linecap="round" stroke-linejoin="round"/>
<path d="M11.9332 24.2667C7.89987 26.9667 7.89987 31.3667 11.9332 34.05C16.5165 37.1167 24.0332 37.1167 28.6165 34.05C32.6499 31.35 32.6499 26.95 28.6165 24.2667C24.0499 21.2167 16.5332 21.2167 11.9332 24.2667Z" stroke="#F3F6FC" stroke-width="2.5" stroke-linecap="round" stroke-linejoin="round"/>
</svg>
