<svg width="29" height="29" viewBox="0 0 29 29" fill="none" xmlns="http://www.w3.org/2000/svg">
<rect x="1" y="1" width="26.9811" height="26.9811" rx="13.4906" fill="#222B3A" stroke="white" stroke-width="2"/>
<path d="M12.1448 7.30739C12.0065 7.25805 11.8598 7.23651 11.7132 7.24401C11.4187 7.26118 11.143 7.39431 10.9465 7.61426C10.7483 7.83284 10.6448 8.12107 10.6587 8.41582C10.6725 8.71056 10.8027 8.98779 11.0206 9.18678L17.4914 15.0543L11.0206 20.9153C10.8027 21.1142 10.6725 21.3915 10.6587 21.6862C10.6448 21.981 10.7483 22.2692 10.9465 22.4878C11.1443 22.7069 11.4209 22.8386 11.7157 22.8541C12.0104 22.8697 12.2993 22.7677 12.519 22.5705L19.9046 15.8776C20.02 15.773 20.1123 15.6455 20.1754 15.5031C20.2385 15.3607 20.2711 15.2067 20.2711 15.051C20.2711 14.8953 20.2385 14.7413 20.1754 14.5989C20.1123 14.4566 20.02 14.329 19.9046 14.2245L12.519 7.53149C12.4102 7.43288 12.283 7.35672 12.1448 7.30739Z" fill="white"/>
</svg>
