<svg width="37" height="36" viewBox="0 0 37 36" fill="none" xmlns="http://www.w3.org/2000/svg">
<rect x="1" y="1" width="26.9811" height="26.9811" rx="13.4906" fill="#222B3A" stroke="white" stroke-width="2"/>
<path d="M20.1383 12.3466C19.6637 11.8225 18.9483 11.5179 17.9567 11.4116V10.8733C17.9567 9.90289 17.5458 8.96789 16.8233 8.31622C16.0937 7.65039 15.1446 7.33872 14.16 7.4308C12.4671 7.59372 11.0433 9.22997 11.0433 11.0008V11.4116C10.0517 11.5179 9.33625 11.8225 8.86166 12.3466C8.17458 13.1116 8.19583 14.1316 8.27375 14.84L8.76958 18.7854C8.91833 20.1666 9.47791 21.5833 12.5237 21.5833H16.4762C19.5221 21.5833 20.0817 20.1666 20.2304 18.7925L20.7262 14.8329C20.8042 14.1316 20.8183 13.1116 20.1383 12.3466ZM14.2592 8.41539C14.9675 8.35164 15.6404 8.57122 16.1646 9.0458C16.6817 9.5133 16.9721 10.1791 16.9721 10.8733V11.3691H12.0279V11.0008C12.0279 9.73997 13.0692 8.52872 14.2592 8.41539ZM11.9642 15.3146H11.9571C11.5675 15.3146 11.2487 14.9958 11.2487 14.6062C11.2487 14.2166 11.5675 13.8979 11.9571 13.8979C12.3537 13.8979 12.6725 14.2166 12.6725 14.6062C12.6725 14.9958 12.3537 15.3146 11.9642 15.3146ZM16.9225 15.3146H16.9154C16.5258 15.3146 16.2071 14.9958 16.2071 14.6062C16.2071 14.2166 16.5258 13.8979 16.9154 13.8979C17.3121 13.8979 17.6308 14.2166 17.6308 14.6062C17.6308 14.9958 17.3121 15.3146 16.9225 15.3146Z" fill="white"/>
<g filter="url(#filter0_d_6_1296)">
<rect x="18.717" y="18.1132" width="13.8868" height="13.8868" rx="6.9434" fill="#EF5254"/>
</g>
<path d="M24.5109 23.3207V22.0307H26.9209V29.3207H25.4809V23.3207H24.5109Z" fill="white"/>
<defs>
<filter id="filter0_d_6_1296" x="14.917" y="14.3132" width="21.4868" height="21.4868" filterUnits="userSpaceOnUse" color-interpolation-filters="sRGB">
<feFlood flood-opacity="0" result="BackgroundImageFix"/>
<feColorMatrix in="SourceAlpha" type="matrix" values="0 0 0 0 0 0 0 0 0 0 0 0 0 0 0 0 0 0 127 0" result="hardAlpha"/>
<feOffset/>
<feGaussianBlur stdDeviation="1.9"/>
<feComposite in2="hardAlpha" operator="out"/>
<feColorMatrix type="matrix" values="0 0 0 0 0 0 0 0 0 0 0 0 0 0 0 0 0 0 0.37 0"/>
<feBlend mode="normal" in2="BackgroundImageFix" result="effect1_dropShadow_6_1296"/>
<feBlend mode="normal" in="SourceGraphic" in2="effect1_dropShadow_6_1296" result="shape"/>
</filter>
</defs>
</svg>
