<svg width="14" height="14" viewBox="0 0 14 14" fill="none" xmlns="http://www.w3.org/2000/svg">
<g clip-path="url(#clip0_1937_827)">
<path d="M1.40773 11.4384C2.22008 12.4172 3.73199 12.4172 6.75582 12.4172H7.24418C10.268 12.4172 11.7799 12.4172 12.5923 11.4384M1.40773 11.4384C0.595386 10.4596 0.874014 8.97354 1.43127 6.0015C1.82756 3.88795 2.02571 2.83117 2.77797 2.20684M1.40773 11.4384C1.40773 11.4384 1.40773 11.4384 1.40773 11.4384ZM12.5923 11.4384C13.4046 10.4596 13.126 8.97354 12.5687 6.0015C12.1724 3.88795 11.9743 2.83117 11.222 2.20684M12.5923 11.4384C12.5923 11.4384 12.5923 11.4384 12.5923 11.4384ZM11.222 2.20684C10.4698 1.58252 9.39457 1.58252 7.24418 1.58252H6.75582C4.60543 1.58252 3.53024 1.58252 2.77797 2.20684M11.222 2.20684C11.222 2.20684 11.222 2.20684 11.222 2.20684ZM2.77797 2.20684C2.77797 2.20684 2.77797 2.20684 2.77797 2.20684Z" stroke="#FAFAF4" stroke-width="1.5"/>
<path d="M5.08429 4.29117C5.36317 5.0802 6.11567 5.64551 7.00019 5.64551C7.88472 5.64551 8.63722 5.0802 8.9161 4.29117" stroke="#FAFAF4" stroke-width="1.5" stroke-linecap="round"/>
</g>
<defs>
<clipPath id="clip0_1937_827">
<rect width="14" height="14" fill="white"/>
</clipPath>
</defs>
</svg>
