<svg width="22" height="27" viewBox="0 0 22 27" fill="none" xmlns="http://www.w3.org/2000/svg">
<path d="M22 8.65685C22 7.63266 21.5969 6.65041 20.8794 5.9262C20.1618 5.20199 19.1887 4.79513 18.1739 4.79513H15.3043V3.46284L18.6522 1.79265C18.8591 1.66697 19.0113 1.46693 19.0782 1.23269C19.145 0.998446 19.1216 0.747349 19.0126 0.529808C18.9036 0.312268 18.7172 0.144389 18.4906 0.0598768C18.2641 -0.0246351 18.0143 -0.0195234 17.7913 0.0741857L13.9652 2.00504C13.7985 2.07839 13.656 2.19818 13.5544 2.35036C13.4527 2.50254 13.3962 2.68081 13.3913 2.86428V4.79513H10.5217C9.507 4.79513 8.53382 5.20199 7.81629 5.9262C7.09876 6.65041 6.69565 7.63266 6.69565 8.65685L6.8487 11.5531H6.69565C4.91986 11.5531 3.21679 12.2651 1.96111 13.5325C0.705433 14.7999 0 16.5188 0 18.3111C0 18.5672 0.100776 18.8127 0.280159 18.9938C0.459542 19.1749 0.702836 19.2766 0.956522 19.2766H1.1287C0.89932 19.8994 0.89932 20.5846 1.1287 21.2074H0.956522C0.702836 21.2074 0.459542 21.3091 0.280159 21.4902C0.100776 21.6712 0 21.9168 0 22.1729V23.1383C0 24.1625 0.403104 25.1447 1.12063 25.8689C1.83817 26.5931 2.81135 27 3.82609 27H20.087C20.331 27.0004 20.566 26.9067 20.7438 26.738C20.9216 26.5693 21.0288 26.3384 21.0435 26.0925L22 8.71478V8.65685ZM10.5217 6.72599H18.1739C18.6813 6.72599 19.1679 6.92942 19.5266 7.29153C19.8854 7.65363 20.087 8.14475 20.087 8.65685H8.6087C8.6087 8.14475 8.81025 7.65363 9.16901 7.29153C9.52778 6.92942 10.0144 6.72599 10.5217 6.72599ZM6.69565 13.484H7.65217C8.75471 13.4838 9.82347 13.868 10.6776 14.5717C11.5317 15.2754 12.1186 16.2554 12.3391 17.3457H2.0087C2.2292 16.2554 2.81617 15.2754 3.67027 14.5717C4.52436 13.868 5.59311 13.4838 6.69565 13.484ZM2.86957 20.242C2.86957 19.9859 2.97034 19.7404 3.14972 19.5593C3.32911 19.3783 3.5724 19.2766 3.82609 19.2766H10.5217C10.7754 19.2766 11.0187 19.3783 11.1981 19.5593C11.3775 19.7404 11.4783 19.9859 11.4783 20.242C11.4783 20.498 11.3775 20.7436 11.1981 20.9247C11.0187 21.1057 10.7754 21.2074 10.5217 21.2074H3.82609C3.5724 21.2074 3.32911 21.1057 3.14972 20.9247C2.97034 20.7436 2.86957 20.498 2.86957 20.242ZM8.6087 25.0691H3.82609C3.31872 25.0691 2.83213 24.8657 2.47336 24.5036C2.1146 24.1415 1.91304 23.6504 1.91304 23.1383H12.4348C12.4348 23.6504 12.2332 24.1415 11.8745 24.5036C11.5157 24.8657 11.0291 25.0691 10.5217 25.0691H8.6087ZM13.8122 25.0691C14.1599 24.486 14.345 23.8189 14.3478 23.1383V22.1729C14.3478 21.9168 14.2471 21.6712 14.0677 21.4902C13.8883 21.3091 13.645 21.2074 13.3913 21.2074H13.2191C13.4485 20.5846 13.4485 19.8994 13.2191 19.2766H13.3913C13.645 19.2766 13.8883 19.1749 14.0677 18.9938C14.2471 18.8127 14.3478 18.5672 14.3478 18.3111C14.3452 16.7166 13.7841 15.1743 12.7636 13.957C11.743 12.7397 10.3289 11.9259 8.7713 11.6593L8.71391 10.5877H19.9817L19.1783 25.0691H13.8122Z" fill="#FAFAF4"/>
</svg>
