<svg xmlns="http://www.w3.org/2000/svg" version="1.1" xmlns:xlink="http://www.w3.org/1999/xlink" xmlns:svgjs="http://svgjs.dev/svgjs" viewBox="0 0 6.246005859374999 7.0931356283629965"><g transform="matrix(0.8571428571428572,0,0,0.8571428571428572,1.8351436941964283,2.9008820998957843)"><rect width="8.134136604925496" height="8.134136604925496" x="-2.5645658610564985" y="-3.3137683024627482" fill="#ffffff"></rect><g transform="matrix(1,0,0,1,0,0)"><g clip-path="url(#SvgjsClipPath105663)"><path d=" M 4.0360644207884935 0.3125 C 4.0360644207884935 1.7212664633909354 2.894033789291184 2.8632970948882446 1.4852673259002485 2.8632970948882446 C 0.07650086250931265 2.8632970948882446 -1.0655297689879968 1.7212664633909354 -1.0655297689879968 0.3125 C -1.0655297689879968 -1.0962664633909358 0.07650086250931265 -2.238297094888245 1.4852673259002485 -2.238297094888245 C 2.894033789291184 -2.238297094888245 4.0360644207884935 -1.0962664633909358 4.0360644207884935 0.3125 Z" fill="#67a97b" transform="matrix(1,0,0,1,0,0)" fill-rule="nonzero"></path></g></g><g transform="matrix(1,0,0,1,0,0)"><path d=" M 0.835 0.619 Q 0.835 0.625 0.833 0.625 Q 0.799 0.625 0.779 0.624 L 0.705 0.623 L 0.63 0.624 Q 0.611 0.625 0.578 0.625 Q 0.5750000000000001 0.625 0.5750000000000001 0.619 Q 0.5750000000000001 0.613 0.578 0.613 Q 0.62 0.613 0.635 0.603 Q 0.65 0.593 0.65 0.5609999999999999 L 0.649 0.544 L 0.628 0.135 L 0.422 0.618 Q 0.42 0.622 0.41400000000000003 0.622 Q 0.40800000000000003 0.622 0.406 0.618 L 0.153 0.137 L 0.145 0.498 Q 0.14400000000000002 0.552 0.1665 0.5825 Q 0.189 0.613 0.23 0.613 Q 0.233 0.613 0.233 0.619 Q 0.233 0.625 0.23 0.625 Q 0.203 0.625 0.188 0.624 L 0.133 0.623 L 0.07 0.624 Q 0.054 0.625 0.027 0.625 Q 0.024 0.625 0.024 0.619 Q 0.024 0.613 0.027 0.613 Q 0.068 0.613 0.092 0.582 Q 0.116 0.551 0.117 0.498 L 0.126 0.08399999999999996 L 0.125 0.08299999999999996 Q 0.105 0.04600000000000004 0.0835 0.029000000000000026 Q 0.062 0.01200000000000001 0.034 0.01200000000000001 Q 0.031 0.01200000000000001 0.031 0.006000000000000005 Q 0.031 0 0.034 0 L 0.081 0.0010000000000000009 Q 0.095 0.0020000000000000018 0.117 0.0020000000000000018 L 0.17 0.0010000000000000009 Q 0.179 0 0.193 0 Q 0.20600000000000002 0 0.213 0.009000000000000008 Q 0.22 0.018000000000000016 0.23900000000000002 0.051999999999999935 L 0.457 0.46099999999999997 L 0.647 0.025000000000000022 Q 0.653 0.01100000000000001 0.6595 0.005499999999999949 Q 0.666 0 0.677 0 Q 0.686 0 0.6975 0.0010000000000000009 Q 0.709 0.0020000000000000018 0.724 0.0020000000000000018 L 0.783 0.0010000000000000009 Q 0.797 0 0.8230000000000001 0 Q 0.8260000000000001 0 0.8260000000000001 0.006000000000000005 Q 0.8260000000000001 0.01200000000000001 0.8230000000000001 0.01200000000000001 Q 0.776 0.01200000000000001 0.755 0.031000000000000028 Q 0.734 0.04999999999999993 0.736 0.08999999999999997 L 0.76 0.544 Q 0.762 0.575 0.7675000000000001 0.589 Q 0.773 0.603 0.7875 0.608 Q 0.802 0.613 0.833 0.613 Q 0.835 0.613 0.835 0.619 M 0.9929946289062501 0.356 Q 0.9929946289062501 0.46699999999999997 1.04199462890625 0.533 Q 1.0909946289062502 0.599 1.1799946289062502 0.599 Q 1.20499462890625 0.599 1.23099462890625 0.592 Q 1.2569946289062501 0.585 1.2769946289062502 0.571 L 1.27799462890625 0.571 Q 1.2809946289062502 0.571 1.28349462890625 0.5745 Q 1.28599462890625 0.578 1.28399462890625 0.581 Q 1.2139946289062502 0.637 1.1299946289062501 0.637 Q 1.05199462890625 0.637 0.9974946289062501 0.6035 Q 0.9429946289062501 0.57 0.9149946289062502 0.516 Q 0.8869946289062501 0.46199999999999997 0.8869946289062501 0.399 Q 0.8869946289062501 0.33 0.9209946289062501 0.2725 Q 0.9549946289062501 0.21499999999999997 1.0129946289062501 0.1815 Q 1.0709946289062502 0.14799999999999996 1.13899462890625 0.14799999999999996 Q 1.21299462890625 0.14799999999999996 1.25199462890625 0.187 Q 1.2909946289062502 0.22599999999999998 1.2909946289062502 0.289 Q 1.2909946289062502 0.302 1.2884946289062502 0.307 Q 1.28599462890625 0.312 1.2789946289062502 0.312 L 0.9949946289062501 0.313 Q 0.9929946289062501 0.33899999999999997 0.9929946289062501 0.356 M 1.03549462890625 0.20400000000000001 Q 1.00799462890625 0.236 0.9979946289062501 0.293 L 1.1839946289062502 0.29 Q 1.1819946289062502 0.172 1.1049946289062502 0.172 Q 1.0629946289062502 0.172 1.03549462890625 0.20400000000000001 M 1.8759975585937503 0.619 Q 1.8759975585937503 0.625 1.8739975585937503 0.625 Q 1.8489975585937501 0.625 1.8349975585937504 0.624 L 1.7829975585937503 0.623 L 1.7229975585937503 0.624 Q 1.7079975585937501 0.625 1.6829975585937502 0.625 Q 1.6809975585937502 0.625 1.6809975585937502 0.619 Q 1.6809975585937502 0.613 1.6829975585937502 0.613 Q 1.7059975585937504 0.613 1.7169975585937503 0.607 Q 1.7279975585937501 0.601 1.7319975585937502 0.5865 Q 1.7359975585937502 0.572 1.7359975585937502 0.542 L 1.7359975585937502 0.34299999999999997 Q 1.7359975585937502 0.249 1.7084975585937503 0.21349999999999997 Q 1.6809975585937502 0.178 1.6329975585937502 0.178 Q 1.5929975585937504 0.178 1.5584975585937502 0.198 Q 1.5239975585937502 0.21799999999999997 1.4939975585937502 0.263 L 1.4939975585937502 0.542 Q 1.4939975585937502 0.572 1.4974975585937502 0.5865 Q 1.5009975585937503 0.601 1.5114975585937502 0.607 Q 1.5219975585937502 0.613 1.5439975585937502 0.613 Q 1.5459975585937502 0.613 1.5459975585937502 0.619 Q 1.5459975585937502 0.625 1.5439975585937502 0.625 Q 1.5149975585937503 0.625 1.4979975585937502 0.624 L 1.4399975585937503 0.623 L 1.3849975585937502 0.624 Q 1.3689975585937502 0.625 1.3399975585937502 0.625 Q 1.3379975585937502 0.625 1.3379975585937502 0.619 Q 1.3379975585937502 0.613 1.3399975585937502 0.613 Q 1.3629975585937502 0.613 1.3744975585937502 0.608 Q 1.3859975585937503 0.603 1.3899975585937503 0.5885 Q 1.3939975585937503 0.574 1.3939975585937503 0.544 L 1.3939975585937503 0.238 Q 1.3939975585937503 0.20800000000000002 1.3899975585937503 0.194 Q 1.3859975585937503 0.18 1.3754975585937501 0.1745 Q 1.3649975585937502 0.16899999999999998 1.3429975585937501 0.16899999999999998 Q 1.3399975585937502 0.16899999999999998 1.3399975585937502 0.16299999999999998 Q 1.3399975585937502 0.15699999999999997 1.3429975585937501 0.15699999999999997 L 1.4079975585937503 0.15799999999999997 L 1.4749975585937503 0.15699999999999997 Q 1.4869975585937503 0.15699999999999997 1.4904975585937503 0.16049999999999998 Q 1.4939975585937502 0.16399999999999998 1.4939975585937502 0.176 L 1.4939975585937502 0.23099999999999998 Q 1.5319975585937502 0.187 1.5759975585937502 0.16599999999999998 Q 1.6199975585937503 0.14500000000000002 1.6729975585937502 0.14500000000000002 Q 1.7429975585937503 0.14500000000000002 1.7889975585937503 0.1845 Q 1.8349975585937504 0.22399999999999998 1.8349975585937504 0.32 L 1.8349975585937504 0.544 Q 1.8349975585937504 0.574 1.8379975585937502 0.5885 Q 1.8409975585937501 0.603 1.8489975585937501 0.608 Q 1.8569975585937502 0.613 1.8739975585937503 0.613 Q 1.8759975585937503 0.613 1.8759975585937503 0.619 M 2.4720151367187504 0.619 Q 2.4720151367187504 0.625 2.4690151367187503 0.625 L 2.30501513671875 0.625 Q 2.2900151367187505 0.625 2.2515151367187505 0.565 Q 2.21301513671875 0.505 2.16001513671875 0.4 Q 2.13901513671875 0.403 2.1180151367187503 0.403 L 2.1010151367187504 0.403 L 2.1010151367187504 0.544 Q 2.1010151367187504 0.575 2.10551513671875 0.589 Q 2.1100151367187503 0.603 2.12251513671875 0.608 Q 2.13501513671875 0.613 2.1630151367187502 0.613 Q 2.1650151367187505 0.613 2.1650151367187505 0.619 Q 2.1650151367187505 0.625 2.1630151367187502 0.625 Q 2.1330151367187504 0.625 2.11601513671875 0.624 L 2.04801513671875 0.623 L 1.9830151367187503 0.624 Q 1.9650151367187503 0.625 1.9330151367187502 0.625 Q 1.9310151367187502 0.625 1.9310151367187502 0.619 Q 1.9310151367187502 0.613 1.9330151367187502 0.613 Q 1.9610151367187503 0.613 1.9740151367187502 0.608 Q 1.9870151367187503 0.603 1.9920151367187502 0.5885 Q 1.9970151367187503 0.574 1.9970151367187503 0.544 L 1.9970151367187503 0.238 Q 1.9970151367187503 0.20800000000000002 1.9925151367187501 0.194 Q 1.9880151367187502 0.18 1.9750151367187503 0.1745 Q 1.9620151367187502 0.16899999999999998 1.9350151367187503 0.16899999999999998 Q 1.9320151367187501 0.16899999999999998 1.9320151367187501 0.16299999999999998 Q 1.9320151367187501 0.15699999999999997 1.9350151367187503 0.15699999999999997 L 1.9840151367187502 0.15799999999999997 Q 2.0240151367187504 0.15999999999999998 2.04801513671875 0.15999999999999998 Q 2.06701513671875 0.15999999999999998 2.08301513671875 0.15899999999999997 Q 2.09901513671875 0.15799999999999997 2.11101513671875 0.15699999999999997 Q 2.14401513671875 0.15399999999999997 2.1730151367187505 0.15399999999999997 Q 2.2510151367187503 0.15399999999999997 2.2920151367187502 0.179 Q 2.33301513671875 0.20400000000000001 2.33301513671875 0.251 Q 2.33301513671875 0.29 2.3080151367187502 0.323 Q 2.2830151367187503 0.356 2.2390151367187503 0.377 Q 2.29301513671875 0.46799999999999997 2.3320151367187503 0.519 Q 2.3710151367187504 0.57 2.40301513671875 0.5915 Q 2.43501513671875 0.613 2.4690151367187503 0.613 Q 2.4720151367187504 0.613 2.4720151367187504 0.619 M 2.1250151367187504 0.384 Q 2.1820151367187504 0.384 2.20401513671875 0.3575 Q 2.2260151367187504 0.331 2.2260151367187504 0.27799999999999997 Q 2.2260151367187504 0.174 2.1500151367187503 0.174 Q 2.1290151367187504 0.174 2.11901513671875 0.179 Q 2.1090151367187504 0.184 2.1050151367187504 0.1975 Q 2.1010151367187504 0.21099999999999997 2.1010151367187504 0.24 L 2.1010151367187504 0.383 Q 2.10801513671875 0.384 2.1250151367187504 0.384 M 2.58598828125 0.6035 Q 2.52998828125 0.57 2.49898828125 0.5135 Q 2.46798828125 0.45699999999999996 2.46798828125 0.391 Q 2.46798828125 0.315 2.50748828125 0.259 Q 2.54698828125 0.203 2.60848828125 0.174 Q 2.66998828125 0.14500000000000002 2.73498828125 0.14500000000000002 Q 2.80598828125 0.14500000000000002 2.86048828125 0.1795 Q 2.91498828125 0.21399999999999997 2.94498828125 0.2695 Q 2.97498828125 0.325 2.97498828125 0.386 Q 2.97498828125 0.45299999999999996 2.93998828125 0.5105 Q 2.90498828125 0.568 2.84498828125 0.6025 Q 2.78498828125 0.637 2.71298828125 0.637 Q 2.64198828125 0.637 2.58598828125 0.6035 M 2.82648828125 0.5589999999999999 Q 2.86098828125 0.504 2.86098828125 0.40700000000000003 Q 2.86098828125 0.34099999999999997 2.84098828125 0.287 Q 2.82098828125 0.23299999999999998 2.78448828125 0.2015 Q 2.74798828125 0.16999999999999998 2.69998828125 0.16999999999999998 Q 2.64198828125 0.16999999999999998 2.61198828125 0.21799999999999997 Q 2.58198828125 0.266 2.58198828125 0.36 Q 2.58198828125 0.431 2.60248828125 0.4895 Q 2.62298828125 0.548 2.65798828125 0.581 Q 2.69298828125 0.614 2.73598828125 0.614 Q 2.79198828125 0.614 2.82648828125 0.5589999999999999" fill="#ffffff" fill-rule="nonzero"></path></g><g transform="matrix(1,0,0,1,0,0)"><path d=" M 0.0722377929687503 3.761367325900249 Q 0.02363779296875032 3.7361673259002486 -0.001862207031249681 3.692967325900249 Q -0.02736220703124968 3.6497673259002488 -0.02736220703124968 3.596367325900249 Q -0.02736220703124968 3.5381673259002486 0.0023377929687503143 3.4931673259002487 Q 0.03203779296875031 3.4481673259002488 0.08393779296875031 3.422967325900249 Q 0.13583779296875031 3.397767325900249 0.20123779296875027 3.397767325900249 Q 0.2306377929687503 3.397767325900249 0.2573377929687503 3.4034673259002486 Q 0.2840377929687503 3.4091673259002486 0.3008377929687503 3.419367325900249 Q 0.30563779296875027 3.4223673259002485 0.3065377929687503 3.424467325900249 Q 0.3074377929687503 3.426567325900249 0.3080377929687503 3.4331673259002486 L 0.31523779296875026 3.500367325900249 Q 0.31523779296875026 3.5021673259002486 0.3119377929687503 3.502467325900249 Q 0.30863779296875027 3.5027673259002485 0.3080377929687503 3.5009673259002487 Q 0.2948377929687503 3.4577673259002486 0.2603377929687503 3.434367325900249 Q 0.22583779296875028 3.410967325900249 0.1754377929687503 3.410967325900249 Q 0.09983779296875031 3.410967325900249 0.05843779296875032 3.454767325900249 Q 0.017037792968750312 3.4985673259002485 0.017037792968750312 3.5747673259002486 Q 0.017037792968750312 3.632967325900249 0.04073779296875031 3.678867325900249 Q 0.06443779296875031 3.7247673259002485 0.1064377929687503 3.7505673259002488 Q 0.14843779296875032 3.7763673259002486 0.20063779296875028 3.7763673259002486 Q 0.2312377929687503 3.7763673259002486 0.24803779296875028 3.7709673259002487 Q 0.2648377929687503 3.765567325900249 0.2726377929687503 3.749967325900249 Q 0.28043779296875027 3.734367325900249 0.28043779296875027 3.7037673259002486 Q 0.28043779296875027 3.672567325900249 0.2765377929687503 3.6602673259002487 Q 0.2726377929687503 3.6479673259002485 0.2591377929687503 3.6437673259002485 Q 0.24563779296875027 3.6395673259002486 0.2126377929687503 3.6395673259002486 Q 0.2090377929687503 3.6395673259002486 0.2090377929687503 3.6347673259002486 Q 0.2090377929687503 3.632967325900249 0.20993779296875031 3.631467325900249 Q 0.21083779296875027 3.6299673259002487 0.2120377929687503 3.6299673259002487 Q 0.2588377929687503 3.632967325900249 0.2876377929687503 3.632967325900249 Q 0.3158377929687503 3.632967325900249 0.34643779296875027 3.6311673259002486 Q 0.3476377929687503 3.6311673259002486 0.34853779296875026 3.6326673259002487 Q 0.34943779296875027 3.6341673259002487 0.34943779296875027 3.6353673259002486 Q 0.34943779296875027 3.6395673259002486 0.34643779296875027 3.6395673259002486 Q 0.3320377929687503 3.6389673259002486 0.3260377929687503 3.643467325900249 Q 0.3200377929687503 3.6479673259002485 0.31823779296875027 3.661767325900249 Q 0.3164377929687503 3.6755673259002486 0.3164377929687503 3.709767325900249 Q 0.3164377929687503 3.7367673259002485 0.3185377929687503 3.7481673259002486 Q 0.3206377929687503 3.7595673259002487 0.3206377929687503 3.762567325900249 Q 0.3206377929687503 3.766167325900249 0.3194377929687503 3.7673673259002487 Q 0.31823779296875027 3.7685673259002486 0.3140377929687503 3.769767325900249 Q 0.2414377929687503 3.786567325900249 0.1862377929687503 3.786567325900249 Q 0.1208377929687503 3.786567325900249 0.0722377929687503 3.761367325900249 M 0.7001313476562503 3.7757673259002487 Q 0.7001313476562503 3.7793673259002487 0.6989313476562502 3.7793673259002487 L 0.6287313476562503 3.7793673259002487 Q 0.6179313476562502 3.7793673259002487 0.5906313476562502 3.7433673259002487 Q 0.5633313476562503 3.7073673259002486 0.5249313476562503 3.6437673259002485 Q 0.5135313476562503 3.6461673259002487 0.4991313476562503 3.6461673259002487 Q 0.48413134765625027 3.6461673259002487 0.4763313476562503 3.644967325900249 L 0.4763313476562503 3.7307673259002487 Q 0.4763313476562503 3.749367325900249 0.4793313476562503 3.757767325900249 Q 0.4823313476562503 3.766167325900249 0.49133134765625025 3.7691673259002485 Q 0.5003313476562503 3.7721673259002486 0.5207313476562503 3.7721673259002486 Q 0.5219313476562503 3.7721673259002486 0.5219313476562503 3.7757673259002487 Q 0.5219313476562503 3.7793673259002487 0.5207313476562503 3.7793673259002487 Q 0.5039313476562503 3.7793673259002487 0.49493134765625024 3.7787673259002488 L 0.4571313476562503 3.778167325900249 L 0.42173134765625025 3.7787673259002488 Q 0.41153134765625027 3.7793673259002487 0.3941313476562503 3.7793673259002487 Q 0.39293134765625026 3.7793673259002487 0.39293134765625026 3.7757673259002487 Q 0.39293134765625026 3.7721673259002486 0.3941313476562503 3.7721673259002486 Q 0.4139313476562503 3.7721673259002486 0.42323134765625026 3.7691673259002485 Q 0.4325313476562503 3.766167325900249 0.4361313476562503 3.7574673259002487 Q 0.43973134765625027 3.7487673259002485 0.43973134765625027 3.7307673259002487 L 0.43973134765625027 3.5471673259002485 Q 0.43973134765625027 3.5291673259002487 0.43643134765625025 3.5207673259002488 Q 0.4331313476562503 3.512367325900249 0.4238313476562503 3.509067325900249 Q 0.41453134765625027 3.5057673259002486 0.3947313476562503 3.5057673259002486 Q 0.39353134765625025 3.5057673259002486 0.39353134765625025 3.5021673259002486 Q 0.39353134765625025 3.4985673259002485 0.3947313476562503 3.4985673259002485 L 0.42233134765625024 3.499167325900249 Q 0.44393134765625025 3.500367325900249 0.4571313476562503 3.500367325900249 Q 0.4679313476562503 3.500367325900249 0.47723134765625025 3.499767325900249 Q 0.4865313476562503 3.499167325900249 0.4931313476562503 3.4985673259002485 Q 0.5117313476562503 3.4967673259002487 0.5285313476562503 3.4967673259002487 Q 0.5675313476562502 3.4967673259002487 0.5879313476562502 3.511767325900249 Q 0.6083313476562503 3.5267673259002486 0.6083313476562503 3.5549673259002486 Q 0.6083313476562503 3.5789673259002486 0.5945313476562503 3.5993673259002485 Q 0.5807313476562502 3.6197673259002485 0.5573313476562503 3.632367325900249 Q 0.5909313476562503 3.6875673259002486 0.6140313476562502 3.7172673259002487 Q 0.6371313476562502 3.7469673259002487 0.6566313476562502 3.7595673259002487 Q 0.6761313476562503 3.7721673259002486 0.6989313476562502 3.7721673259002486 Q 0.7001313476562503 3.7721673259002486 0.7001313476562503 3.7757673259002487 M 0.5033313476562502 3.6359673259002485 Q 0.5405313476562503 3.6359673259002485 0.5552313476562503 3.6194673259002488 Q 0.5699313476562502 3.6029673259002486 0.5699313476562502 3.5711673259002485 Q 0.5699313476562502 3.5051673259002487 0.5129313476562503 3.5051673259002487 Q 0.49013134765625027 3.5051673259002487 0.48323134765625025 3.5147673259002485 Q 0.4763313476562503 3.524367325900249 0.4763313476562503 3.548367325900249 L 0.4763313476562503 3.6341673259002487 Q 0.48713134765625027 3.6359673259002485 0.5033313476562502 3.6359673259002485 M 0.9320290039062503 3.7469673259002487 Q 0.9338290039062502 3.7469673259002487 0.9353290039062503 3.7490673259002487 Q 0.9368290039062503 3.7511673259002487 0.9356290039062503 3.7529673259002485 Q 0.8930290039062503 3.786567325900249 0.8426290039062503 3.786567325900249 Q 0.8000290039062503 3.786567325900249 0.7697290039062503 3.7664673259002486 Q 0.7394290039062503 3.746367325900249 0.7241290039062503 3.713967325900249 Q 0.7088290039062503 3.681567325900249 0.7088290039062503 3.644367325900249 Q 0.7088290039062503 3.6029673259002486 0.7286290039062503 3.5678673259002487 Q 0.7484290039062503 3.532767325900249 0.7814290039062503 3.512367325900249 Q 0.8144290039062503 3.491967325900249 0.8534290039062503 3.491967325900249 Q 0.8936290039062502 3.491967325900249 0.9140290039062503 3.5141673259002486 Q 0.9344290039062503 3.536367325900249 0.9344290039062503 3.5741673259002487 Q 0.9344290039062503 3.580167325900249 0.9329290039062503 3.582867325900249 Q 0.9314290039062503 3.5855673259002487 0.9272290039062503 3.5855673259002487 L 0.7526290039062503 3.5861673259002487 Q 0.7490290039062503 3.6029673259002486 0.7490290039062503 3.6233673259002486 Q 0.7490290039062503 3.6641673259002485 0.7628290039062503 3.6968673259002487 Q 0.7766290039062503 3.729567325900249 0.8027290039062502 3.7481673259002486 Q 0.8288290039062503 3.7667673259002488 0.8642290039062503 3.7667673259002488 Q 0.9044290039062503 3.7667673259002488 0.9314290039062503 3.7469673259002487 L 0.9320290039062503 3.7469673259002487 M 0.7847290039062503 3.5234673259002487 Q 0.7634290039062503 3.5429673259002485 0.7544290039062503 3.5771673259002488 L 0.8924290039062504 3.5747673259002486 Q 0.8930290039062503 3.540567325900249 0.8783290039062503 3.522267325900249 Q 0.8636290039062503 3.503967325900249 0.8348290039062503 3.503967325900249 Q 0.8060290039062503 3.503967325900249 0.7847290039062503 3.5234673259002487 M 1.1969445312500002 3.7469673259002487 Q 1.1987445312500002 3.7469673259002487 1.2002445312500003 3.7490673259002487 Q 1.2017445312500004 3.7511673259002487 1.2005445312500003 3.7529673259002485 Q 1.1579445312500003 3.786567325900249 1.1075445312500003 3.786567325900249 Q 1.0649445312500003 3.786567325900249 1.0346445312500003 3.7664673259002486 Q 1.0043445312500003 3.746367325900249 0.9890445312500004 3.713967325900249 Q 0.9737445312500003 3.681567325900249 0.9737445312500003 3.644367325900249 Q 0.9737445312500003 3.6029673259002486 0.9935445312500003 3.5678673259002487 Q 1.0133445312500002 3.532767325900249 1.0463445312500004 3.512367325900249 Q 1.0793445312500003 3.491967325900249 1.1183445312500002 3.491967325900249 Q 1.1585445312500002 3.491967325900249 1.1789445312500002 3.5141673259002486 Q 1.1993445312500004 3.536367325900249 1.1993445312500004 3.5741673259002487 Q 1.1993445312500004 3.580167325900249 1.1978445312500003 3.582867325900249 Q 1.1963445312500003 3.5855673259002487 1.1921445312500003 3.5855673259002487 L 1.0175445312500002 3.5861673259002487 Q 1.0139445312500004 3.6029673259002486 1.0139445312500004 3.6233673259002486 Q 1.0139445312500004 3.6641673259002485 1.0277445312500002 3.6968673259002487 Q 1.0415445312500002 3.729567325900249 1.0676445312500003 3.7481673259002486 Q 1.0937445312500003 3.7667673259002488 1.1291445312500004 3.7667673259002488 Q 1.1693445312500004 3.7667673259002488 1.1963445312500003 3.7469673259002487 L 1.1969445312500002 3.7469673259002487 M 1.0496445312500002 3.5234673259002487 Q 1.0283445312500004 3.5429673259002485 1.0193445312500002 3.5771673259002488 L 1.1573445312500004 3.5747673259002486 Q 1.1579445312500003 3.540567325900249 1.1432445312500004 3.522267325900249 Q 1.1285445312500002 3.503967325900249 1.0997445312500003 3.503967325900249 Q 1.0709445312500003 3.503967325900249 1.0496445312500002 3.5234673259002487 M 1.5692600585937502 3.7757673259002487 Q 1.5692600585937502 3.7793673259002487 1.5680600585937503 3.7793673259002487 Q 1.5530600585937502 3.7793673259002487 1.5446600585937502 3.7787673259002488 L 1.5134600585937503 3.778167325900249 L 1.4756600585937503 3.7787673259002488 Q 1.4666600585937504 3.7793673259002487 1.4516600585937502 3.7793673259002487 Q 1.4504600585937504 3.7793673259002487 1.4504600585937504 3.7757673259002487 Q 1.4504600585937504 3.7721673259002486 1.4516600585937502 3.7721673259002486 Q 1.4708600585937504 3.7721673259002486 1.4801600585937504 3.7685673259002486 Q 1.4894600585937503 3.7649673259002485 1.4927600585937504 3.756267325900249 Q 1.4960600585937502 3.7475673259002487 1.4960600585937502 3.729567325900249 L 1.4960600585937502 3.6101673259002487 Q 1.4960600585937502 3.552567325900249 1.4759600585937502 3.530067325900249 Q 1.4558600585937502 3.507567325900249 1.4180600585937504 3.507567325900249 Q 1.3910600585937503 3.507567325900249 1.3679600585937504 3.5186673259002488 Q 1.3448600585937502 3.5297673259002487 1.3190600585937504 3.5573673259002487 L 1.3190600585937504 3.729567325900249 Q 1.3190600585937504 3.7475673259002487 1.3223600585937503 3.756267325900249 Q 1.3256600585937504 3.7649673259002485 1.3346600585937503 3.7685673259002486 Q 1.3436600585937504 3.7721673259002486 1.3622600585937503 3.7721673259002486 Q 1.3640600585937503 3.7721673259002486 1.3640600585937503 3.7757673259002487 Q 1.3640600585937503 3.7793673259002487 1.3622600585937503 3.7793673259002487 Q 1.3460600585937503 3.7793673259002487 1.3364600585937503 3.7787673259002488 L 1.2998600585937503 3.778167325900249 L 1.2644600585937504 3.7787673259002488 Q 1.2548600585937504 3.7793673259002487 1.2380600585937502 3.7793673259002487 Q 1.2368600585937504 3.7793673259002487 1.2368600585937504 3.7757673259002487 Q 1.2368600585937504 3.7721673259002486 1.2380600585937502 3.7721673259002486 Q 1.2572600585937503 3.7721673259002486 1.2665600585937504 3.7688673259002488 Q 1.2758600585937503 3.765567325900249 1.2794600585937503 3.757167325900249 Q 1.2830600585937504 3.7487673259002485 1.2830600585937504 3.7307673259002487 L 1.2830600585937504 3.5471673259002485 Q 1.2830600585937504 3.5291673259002487 1.2797600585937503 3.5207673259002488 Q 1.2764600585937502 3.512367325900249 1.2674600585937503 3.509067325900249 Q 1.2584600585937504 3.5057673259002486 1.2398600585937503 3.5057673259002486 Q 1.2380600585937502 3.5057673259002486 1.2380600585937502 3.5021673259002486 Q 1.2380600585937502 3.4985673259002485 1.2398600585937503 3.4985673259002485 L 1.2788600585937504 3.499167325900249 L 1.3082600585937503 3.4985673259002485 Q 1.3154600585937504 3.4985673259002485 1.3172600585937504 3.5006673259002485 Q 1.3190600585937504 3.5027673259002485 1.3190600585937504 3.5099673259002486 L 1.3190600585937504 3.5453673259002487 Q 1.3472600585937502 3.5171673259002487 1.3748600585937503 3.5042673259002486 Q 1.4024600585937503 3.491367325900249 1.4336600585937502 3.491367325900249 Q 1.4780600585937502 3.491367325900249 1.5050600585937504 3.5156673259002487 Q 1.5320600585937503 3.539967325900249 1.5320600585937503 3.5903673259002487 L 1.5320600585937503 3.7307673259002487 Q 1.5320600585937503 3.7487673259002485 1.5347600585937502 3.7574673259002487 Q 1.5374600585937503 3.766167325900249 1.5449600585937504 3.7691673259002485 Q 1.5524600585937502 3.7721673259002486 1.5680600585937503 3.7721673259002486 Q 1.5692600585937502 3.7721673259002486 1.5692600585937502 3.7757673259002487 M 1.99225625 3.483567325900249 Q 1.99225625 3.4853673259002487 1.9892562500000002 3.485667325900249 Q 1.9862562500000003 3.4859673259002486 1.9856562500000001 3.484167325900249 Q 1.98385625 3.4523673259002488 1.9664562500000002 3.4346673259002487 Q 1.9490562500000002 3.4169673259002487 1.9202562500000002 3.4169673259002487 L 1.8836562500000003 3.4169673259002487 Q 1.8632562500000003 3.4169673259002487 1.8530562500000003 3.4199673259002488 Q 1.8428562500000003 3.422967325900249 1.8389562500000003 3.430767325900249 Q 1.8350562500000003 3.438567325900249 1.8350562500000003 3.4535673259002486 L 1.8350562500000003 3.584967325900249 L 1.8956562500000003 3.584967325900249 Q 1.92745625 3.584967325900249 1.9409562500000002 3.575067325900249 Q 1.9544562500000002 3.5651673259002488 1.9544562500000002 3.5429673259002485 Q 1.9544562500000002 3.5417673259002487 1.9580562500000003 3.5417673259002487 Q 1.96165625 3.5417673259002487 1.96165625 3.5429673259002485 L 1.9610562500000002 3.5915673259002485 Q 1.9610562500000002 3.608967325900249 1.96165625 3.6179673259002487 L 1.9622562500000003 3.6467673259002487 Q 1.9622562500000003 3.6479673259002485 1.9586562500000002 3.6479673259002485 Q 1.9550562500000002 3.6479673259002485 1.9550562500000002 3.6467673259002487 Q 1.9550562500000002 3.620367325900249 1.9409562500000002 3.608967325900249 Q 1.9268562500000002 3.5975673259002487 1.8938562500000002 3.5975673259002487 L 1.8350562500000003 3.5975673259002487 L 1.8350562500000003 3.7283673259002486 Q 1.8350562500000003 3.7475673259002487 1.8401562500000002 3.756267325900249 Q 1.8452562500000003 3.7649673259002485 1.8602562500000002 3.7685673259002486 Q 1.8752562500000003 3.7721673259002486 1.9076562500000003 3.7721673259002486 Q 1.9094562500000003 3.7721673259002486 1.9094562500000003 3.7757673259002487 Q 1.9094562500000003 3.7793673259002487 1.9076562500000003 3.7793673259002487 Q 1.88305625 3.7793673259002487 1.8692562500000003 3.7787673259002488 L 1.8152562500000002 3.778167325900249 L 1.7744562500000003 3.7787673259002488 Q 1.7636562500000001 3.7793673259002487 1.74385625 3.7793673259002487 Q 1.7426562500000002 3.7793673259002487 1.7426562500000002 3.7757673259002487 Q 1.7426562500000002 3.7721673259002486 1.74385625 3.7721673259002486 Q 1.7666562500000003 3.7721673259002486 1.7774562500000002 3.7691673259002485 Q 1.7882562500000003 3.766167325900249 1.7921562500000001 3.7574673259002487 Q 1.7960562500000001 3.7487673259002485 1.7960562500000001 3.7307673259002487 L 1.7960562500000001 3.4529673259002487 Q 1.7960562500000001 3.434967325900249 1.7921562500000001 3.426567325900249 Q 1.7882562500000003 3.4181673259002485 1.7777562500000001 3.4148673259002487 Q 1.7672562500000002 3.411567325900249 1.7444562500000003 3.411567325900249 Q 1.7432562500000002 3.411567325900249 1.7432562500000002 3.4079673259002488 Q 1.7432562500000002 3.4043673259002487 1.7444562500000003 3.4043673259002487 L 1.9856562500000001 3.4043673259002487 Q 1.9910562500000002 3.4043673259002487 1.9910562500000002 3.4097673259002486 L 1.99225625 3.483567325900249 M 2.11583955078125 3.7667673259002488 Q 2.08313955078125 3.7469673259002487 2.06513955078125 3.713367325900249 Q 2.04713955078125 3.6797673259002486 2.04713955078125 3.640767325900249 Q 2.04713955078125 3.5939673259002487 2.07143955078125 3.5600673259002487 Q 2.09573955078125 3.5261673259002486 2.13323955078125 3.5087673259002488 Q 2.17073955078125 3.491367325900249 2.2097395507812503 3.491367325900249 Q 2.25173955078125 3.491367325900249 2.2838395507812503 3.5120673259002486 Q 2.31593955078125 3.532767325900249 2.3330395507812502 3.5657673259002487 Q 2.35013955078125 3.5987673259002486 2.35013955078125 3.6347673259002486 Q 2.35013955078125 3.6749673259002487 2.32853955078125 3.7100673259002486 Q 2.3069395507812502 3.745167325900249 2.2703395507812503 3.7658673259002486 Q 2.2337395507812503 3.786567325900249 2.19053955078125 3.786567325900249 Q 2.14853955078125 3.786567325900249 2.11583955078125 3.7667673259002488 M 2.2808395507812502 3.7409673259002485 Q 2.30873955078125 3.7079673259002486 2.30873955078125 3.6497673259002488 Q 2.30873955078125 3.6095673259002488 2.29463955078125 3.576567325900249 Q 2.28053955078125 3.543567325900249 2.25353955078125 3.523767325900249 Q 2.22653955078125 3.503967325900249 2.1893395507812503 3.503967325900249 Q 2.1413395507812503 3.503967325900249 2.11493955078125 3.5360673259002486 Q 2.0885395507812503 3.568167325900249 2.0885395507812503 3.6257673259002487 Q 2.0885395507812503 3.6671673259002486 2.1026395507812503 3.700767325900249 Q 2.1167395507812503 3.734367325900249 2.1434395507812503 3.754167325900249 Q 2.17013955078125 3.773967325900249 2.2061395507812502 3.773967325900249 Q 2.25293955078125 3.773967325900249 2.2808395507812502 3.7409673259002485 M 2.4635553710937503 3.7667673259002488 Q 2.43085537109375 3.7469673259002487 2.4128553710937504 3.713367325900249 Q 2.39485537109375 3.6797673259002486 2.39485537109375 3.640767325900249 Q 2.39485537109375 3.5939673259002487 2.4191553710937503 3.5600673259002487 Q 2.44345537109375 3.5261673259002486 2.48095537109375 3.5087673259002488 Q 2.5184553710937503 3.491367325900249 2.5574553710937504 3.491367325900249 Q 2.5994553710937502 3.491367325900249 2.63155537109375 3.5120673259002486 Q 2.6636553710937503 3.532767325900249 2.6807553710937504 3.5657673259002487 Q 2.69785537109375 3.5987673259002486 2.69785537109375 3.6347673259002486 Q 2.69785537109375 3.6749673259002487 2.6762553710937502 3.7100673259002486 Q 2.6546553710937504 3.745167325900249 2.6180553710937504 3.7658673259002486 Q 2.5814553710937505 3.786567325900249 2.5382553710937503 3.786567325900249 Q 2.49625537109375 3.786567325900249 2.4635553710937503 3.7667673259002488 M 2.6285553710937504 3.7409673259002485 Q 2.65645537109375 3.7079673259002486 2.65645537109375 3.6497673259002488 Q 2.65645537109375 3.6095673259002488 2.64235537109375 3.576567325900249 Q 2.62825537109375 3.543567325900249 2.6012553710937505 3.523767325900249 Q 2.5742553710937504 3.503967325900249 2.5370553710937505 3.503967325900249 Q 2.4890553710937504 3.503967325900249 2.46265537109375 3.5360673259002486 Q 2.4362553710937505 3.568167325900249 2.4362553710937505 3.6257673259002487 Q 2.4362553710937505 3.6671673259002486 2.4503553710937505 3.700767325900249 Q 2.4644553710937505 3.734367325900249 2.4911553710937504 3.754167325900249 Q 2.5178553710937503 3.773967325900249 2.5538553710937504 3.773967325900249 Q 2.60065537109375 3.773967325900249 2.6285553710937504 3.7409673259002485 M 2.8475711914062503 3.7799673259002486 Q 2.8403711914062506 3.7793673259002487 2.8295711914062505 3.7787673259002488 Q 2.8187711914062503 3.778167325900249 2.8049711914062505 3.778167325900249 L 2.7695711914062504 3.7787673259002488 Q 2.7593711914062506 3.7793673259002487 2.7419711914062503 3.7793673259002487 Q 2.7407711914062505 3.7793673259002487 2.7407711914062505 3.7757673259002487 Q 2.7407711914062505 3.7721673259002486 2.7419711914062503 3.7721673259002486 Q 2.7623711914062503 3.7721673259002486 2.7716711914062504 3.7691673259002485 Q 2.7809711914062505 3.766167325900249 2.7842711914062503 3.7574673259002487 Q 2.7875711914062506 3.7487673259002485 2.7875711914062506 3.7307673259002487 L 2.7875711914062506 3.5471673259002485 Q 2.7875711914062506 3.5291673259002487 2.7842711914062503 3.5207673259002488 Q 2.7809711914062505 3.512367325900249 2.7716711914062504 3.509067325900249 Q 2.7623711914062503 3.5057673259002486 2.7425711914062503 3.5057673259002486 Q 2.7413711914062504 3.5057673259002486 2.7413711914062504 3.5021673259002486 Q 2.7413711914062504 3.4985673259002485 2.7425711914062503 3.4985673259002485 L 2.7695711914062504 3.499167325900249 Q 2.7923711914062506 3.500367325900249 2.8049711914062505 3.500367325900249 Q 2.8235711914062502 3.500367325900249 2.8421711914062504 3.4985673259002485 Q 2.8661711914062504 3.4973673259002487 2.8781711914062504 3.4973673259002487 Q 2.92857119140625 3.4973673259002487 2.9651711914062506 3.515367325900249 Q 3.0017711914062506 3.5333673259002487 3.0209711914062503 3.5651673259002488 Q 3.0401711914062504 3.596967325900249 3.0401711914062504 3.637167325900249 Q 3.0401711914062504 3.6785673259002487 3.0203711914062503 3.7115673259002486 Q 3.0005711914062503 3.7445673259002485 2.9654711914062504 3.7631673259002487 Q 2.9303711914062505 3.781767325900249 2.8853711914062505 3.781767325900249 Q 2.8679711914062502 3.781767325900249 2.8475711914062503 3.7799673259002486 M 2.9654711914062504 3.7397673259002486 Q 2.9969711914062502 3.7061673259002488 2.9969711914062502 3.6437673259002485 Q 2.9969711914062502 3.583767325900249 2.9660711914062503 3.544767325900249 Q 2.9351711914062504 3.5057673259002486 2.8733711914062505 3.5057673259002486 Q 2.8457711914062505 3.5057673259002486 2.8346711914062506 3.5147673259002485 Q 2.8235711914062502 3.523767325900249 2.8235711914062502 3.548367325900249 L 2.8235711914062502 3.7241673259002486 Q 2.8235711914062502 3.7511673259002487 2.8346711914062506 3.7622673259002486 Q 2.8457711914062505 3.773367325900249 2.8781711914062504 3.773367325900249 Q 2.9339711914062505 3.773367325900249 2.9654711914062504 3.7397673259002486" fill="#67a97b" fill-rule="nonzero"></path></g></g><defs><clipPath id="SvgjsClipPath105663"><path d=" M -1.1 -2.2727673259002485 h 5.2050048828125 v 5.170534651800497 h -5.2050048828125 Z"></path></clipPath></defs></svg>