<svg width="16" height="18" viewBox="0 0 16 18" fill="none" xmlns="http://www.w3.org/2000/svg">
              <path d="M16 2.86094V13.0317C16 14.8138 14.5512 16.2629 12.7694 16.2629C10.9966 16.2629 9.53882 14.8138 9.53882 13.0317C9.53882 11.2585 10.9966 9.80943 12.7694 9.80943C13.5253 9.80943 14.2002 10.0704 14.7492 10.5025V5.1471L6.4612 7.50527V14.7688C6.4612 16.5509 5.00336 18 3.23058 18C1.44881 18 0 16.5509 0 14.7688C0 12.9957 1.44881 11.5466 3.23058 11.5466C3.9775 11.5466 4.65241 11.8076 5.20134 12.2306V4.27404C5.20134 2.95095 6.00224 1.92488 7.2711 1.58285L12.4724 0.160755C13.5253 -0.127265 14.4162 -0.0282579 15.0461 0.457776C15.685 0.934809 16 1.74487 16 2.86094Z" fill="white"/>
            </svg> 