<svg width="22" height="22" viewBox="0 0 22 22" fill="none" xmlns="http://www.w3.org/2000/svg">
<circle cx="10.1757" cy="10.1314" r="6.40585" stroke="#F0F0F0" stroke-width="1.2"/>
<path d="M18.0961 17.5447C18.0515 17.6121 17.9708 17.6928 17.8095 17.8541C17.6482 18.0154 17.5676 18.096 17.5002 18.1406C17.1054 18.402 16.5714 18.2673 16.3479 17.8499C16.3098 17.7787 16.2771 17.6694 16.2116 17.4509C16.14 17.2122 16.1043 17.0928 16.0973 17.0088C16.0566 16.5141 16.4696 16.1012 16.9642 16.1419C17.0482 16.1488 17.1676 16.1846 17.4064 16.2561C17.6249 16.3216 17.7341 16.3543 17.8054 16.3925C18.2228 16.616 18.3575 17.15 18.0961 17.5447Z" stroke="#F0F0F0" stroke-width="1.2" stroke-linecap="round"/>
</svg>
