<svg width="30" height="30" viewBox="0 0 30 30" fill="none" xmlns="http://www.w3.org/2000/svg">
<g clip-path="url(#clip0_2033_487)">
<path d="M5.5417 14.6815L6.11298 14.095L6.7871 14.877C7.00926 15.1245 7.31269 15.2655 7.64149 15.2731H7.66688C7.98553 15.2731 8.28513 15.1461 8.51113 14.9138L9.39218 14.0099C9.6245 13.7712 9.74893 13.4551 9.74256 13.1174C9.73621 12.7797 9.5991 12.4687 9.35282 12.2351L8.59492 11.547L9.1662 10.9605C9.79462 10.3156 9.79462 9.26696 9.1662 8.62203L9.10146 8.55475C8.27625 7.70796 7.13495 7.25221 5.96826 7.30425C4.78633 7.35757 3.71231 7.90218 2.94677 8.83786C1.57059 10.52 1.71024 13.0869 3.26415 14.6814C3.8913 15.3263 4.91455 15.3264 5.5417 14.6815Z" fill="#FAFAF4"/>
<path d="M7.48438 6.4941C8.69169 6.4941 9.67433 5.48608 9.67433 4.24702C9.67306 3.00796 8.69172 1.99994 7.48438 1.99994C6.27704 1.99994 5.29443 3.00796 5.29443 4.24702C5.29443 5.48608 6.27704 6.4941 7.48438 6.4941Z" fill="#FAFAF4"/>
<path d="M26.4196 4.35237C26.4196 5.59397 25.4396 6.60072 24.2297 6.60072C23.0211 6.60072 22.041 5.59397 22.041 4.35237C22.041 3.11204 23.0211 2.10529 24.2297 2.10529C25.4396 2.10529 26.4196 3.11204 26.4196 4.35237Z" fill="#FAFAF4"/>
<path d="M13.4766 15.6831C14.6839 15.6831 15.6665 14.6751 15.6665 13.436C15.6665 12.197 14.6839 11.189 13.4766 11.189C12.2692 11.189 11.2866 12.197 11.2866 13.436C11.2866 14.6751 12.2692 15.6831 13.4766 15.6831Z" fill="#FAFAF4"/>
<path d="M16.0779 9.61345C18.1231 9.61345 19.7861 7.90593 19.7861 5.80738C19.7861 3.70758 18.123 2 16.0779 2C14.0327 2 12.3696 3.70752 12.3696 5.80608C12.3696 7.90587 14.034 9.61345 16.0779 9.61345ZM16.0779 3.61233C17.2573 3.61233 18.2158 4.59746 18.2158 5.80734C18.2158 7.01722 17.2573 8.00109 16.0779 8.00109C14.8985 8.00109 13.94 7.01722 13.94 5.80734C13.94 4.5962 14.8998 3.61233 16.0779 3.61233Z" fill="#FAFAF4"/>
<path d="M16.0778 7.3167C16.8891 7.3167 17.5492 6.63878 17.5492 5.80724C17.5492 4.97443 16.8891 4.29651 16.0778 4.29651C15.2666 4.29651 14.6064 4.97443 14.6064 5.80724C14.6064 6.63878 15.2666 7.3167 16.0778 7.3167Z" fill="#FAFAF4"/>
<path d="M18.9492 15.2743L19.3694 16.6137H20.399L24.6266 12.2733C24.7574 12.14 24.9681 12.14 25.0976 12.2733C25.2284 12.4066 25.2284 12.6237 25.0976 12.757L21.3409 16.6125H24.5147C25.1152 16.6125 25.6408 16.2659 25.8541 15.7289C25.9557 15.4724 25.9747 15.2134 25.9125 14.9354C25.8896 14.8338 25.9125 14.7272 25.976 14.6447C26.0394 14.5634 26.1347 14.5152 26.2375 14.5152H26.5891C27.3267 14.5152 27.959 13.935 27.9983 13.2215C28.0199 12.8191 27.8701 12.4281 27.5857 12.1488C27.4562 12.0218 27.4473 11.8136 27.5654 11.6765C28.0263 11.1344 27.9996 10.3118 27.5045 9.80269C27.0094 9.29361 26.207 9.26696 25.6789 9.74049C25.5443 9.86109 25.3412 9.85094 25.218 9.71891C24.9464 9.42691 24.5655 9.27203 24.1732 9.29488C23.4788 9.3355 22.9126 9.98424 22.9126 10.7421V11.104C22.9126 11.2081 22.8656 11.3071 22.7869 11.3718C22.7069 11.4366 22.6028 11.4607 22.5038 11.4366C22.2334 11.3718 21.9807 11.3909 21.7307 11.4962C21.2101 11.7146 20.8597 12.2796 20.8597 12.9003V13.2101C20.8597 13.3142 20.8128 13.4132 20.7341 13.478C20.6541 13.5427 20.55 13.5668 20.451 13.5427C20.1323 13.4666 19.8301 13.5084 19.5585 13.6456C19.0062 13.9236 18.7448 14.6231 18.9492 15.2743Z" fill="#FAFAF4"/>
<path d="M7.7011 27.6115C8.02843 27.8724 8.43956 28 8.85811 28H21.8074C22.2259 28 22.637 27.8724 22.9644 27.6116C25.5229 25.5728 27.2338 22.6151 27.796 19.3343C27.9857 18.2269 27.0684 17.2964 25.9448 17.2964H4.7209C3.59737 17.2964 2.68001 18.2268 2.8697 19.3342C3.43169 22.615 5.14248 25.5727 7.7011 27.6115Z" fill="#FAFAF4"/>
</g>
<defs>
<clipPath id="clip0_2033_487">
<rect width="26" height="26" fill="white" transform="translate(2 2)"/>
</clipPath>
</defs>
</svg>
