<svg width="30" height="30" viewBox="0 0 30 30" fill="none" xmlns="http://www.w3.org/2000/svg">
<path d="M21.175 3C19.9538 3 19.0238 3.2125 18.2687 3.5475C17.8125 3.75 17.76 4.38 18.1812 4.6475C19.0175 5.17875 19.6688 5.75375 20.1375 6.23375C20.655 6.76375 20.5513 7.63375 19.9325 8.04375L19.835 8.10875C19.3538 8.4275 18.7213 8.34625 18.3162 7.935C17.6112 7.21875 16.33 6.18875 14.47 5.73875C14.36 5.7125 14.2375 5.7125 14.1275 5.74C12.5487 6.13875 11.395 7.02625 10.7137 8.345C10.5325 8.70125 10.6975 9.12625 11.0763 9.255C12.6975 9.80625 14.0012 10.625 14.84 11.2438C15.4187 11.67 15.48 12.5075 14.9788 13.0225L14.8825 13.1213C14.47 13.5463 13.8113 13.605 13.335 13.2537C12.385 12.5513 10.6538 11.49 8.56875 11.2025C8.42875 11.1838 8.28 11.2088 8.15625 11.2763C6.72875 12.0563 5.7125 13.42 5.2725 15.1987C5.1925 15.5237 5.41625 15.8438 5.73875 15.9325C7.2225 16.3375 8.3675 16.9625 9.13375 17.4775C9.75875 17.8962 9.84875 18.7762 9.3175 19.3075L9.22875 19.3962C8.82875 19.7962 8.20875 19.8638 7.74 19.5475C6.9825 19.0375 5.6675 18.3438 3.87125 18.0975C3.62625 18.0638 3.37 18.18 3.24875 18.395C2.80875 19.1787 2.5 20.2262 2.5 21.6125C2.5 23.5 3.1 24.9625 4.3 25.95C4.8875 26.5125 5.5625 26.775 6.325 26.775C9.2625 26.775 13.4 22.9875 18.025 18.45C22.9875 13.4625 26.25 9.975 26.25 6.9125C26.25 4.5 23.6125 3 21.175 3Z" fill="#FAFAF4"/>
</svg>
