<svg width="30" height="30" viewBox="0 0 30 30" fill="none" xmlns="http://www.w3.org/2000/svg">
<path d="M6.36593 13.75H23.6343C25.3957 13.75 26.6872 12.0816 26.1113 10.4784C24.7044 6.56225 20.8419 3.75 16.2978 3.75H13.7024C9.15831 3.75 5.29593 6.56225 3.88893 10.4784C3.31293 12.0817 4.60443 13.75 6.36593 13.75ZM20.6251 8.125C21.3154 8.125 21.8751 8.68463 21.8751 9.375C21.8751 10.0654 21.3154 10.625 20.6251 10.625C19.9347 10.625 19.3751 10.0652 19.3751 9.375C19.3751 8.68475 19.9347 8.125 20.6251 8.125ZM15.0001 6.875C15.6904 6.875 16.2501 7.43463 16.2501 8.125C16.2501 8.81537 15.6904 9.375 15.0001 9.375C14.3097 9.375 13.7501 8.81525 13.7501 8.125C13.7501 7.43475 14.3097 6.875 15.0001 6.875ZM9.37506 8.125C10.0654 8.125 10.6251 8.68463 10.6251 9.375C10.6251 10.0654 10.0654 10.625 9.37506 10.625C8.68468 10.625 8.12506 10.0652 8.12506 9.375C8.12506 8.68475 8.68468 8.125 9.37506 8.125ZM25.8703 22.5525C24.4828 24.7652 21.9209 26.25 18.9902 26.25H11.0098C8.07906 26.25 5.51731 24.7652 4.12968 22.5525C3.07656 20.873 4.33593 18.75 6.41031 18.75H7.12368C7.35868 18.75 7.57818 18.8675 7.70868 19.063L9.70743 22.0611C9.84656 22.2699 10.1533 22.2699 10.2924 22.0611L12.2912 19.063C12.4216 18.8675 12.6412 18.75 12.8762 18.75H23.5896C25.6638 18.75 26.9234 20.873 25.8703 22.5525ZM3.75006 16.875V15.625C3.75006 15.2797 4.02993 15 4.37506 15H25.6251C25.9702 15 26.2501 15.2797 26.2501 15.625V16.875C26.2501 17.2201 25.9702 17.5 25.6251 17.5H4.37506C4.02993 17.5 3.75006 17.2201 3.75006 16.875Z" fill="#FAFAF4"/>
</svg>
