<svg width="30" height="30" viewBox="0 0 30 30" fill="none" xmlns="http://www.w3.org/2000/svg">
<path d="M11.1719 5.01255C10.5833 5.06084 10.0066 5.24777 9.49219 5.56919L4.2627 8.83823C3.16788 9.52319 2.5 10.7263 2.5 12.0169V20.9452C2.5 23.6918 4.75333 25.9452 7.5 25.9452H23.75C25.8062 25.9452 27.5 24.2514 27.5 22.1952V19.9051C27.5223 19.7701 27.5223 19.6324 27.5 19.4974V13.8602C27.5 13.8291 27.4833 13.7963 27.4766 13.7538C27.418 13.3827 27.4232 13.3884 27.3555 13.1639C27.2877 12.9395 27.2353 12.8628 27.0898 12.5052C26.7197 11.5958 26.1331 10.792 25.1929 10.4007H25.1904L16.8726 6.93393C16.7657 6.86897 16.6496 6.82041 16.5283 6.78989L12.9224 5.28842C12.3622 5.0552 11.7605 4.96426 11.1719 5.01255ZM11.377 7.50278C11.5728 7.48691 11.7731 7.51753 11.9604 7.59555L13.5156 8.24497L8.08105 11.6947C7.90324 11.8073 7.75675 11.9631 7.65517 12.1474C7.5536 12.3318 7.50022 12.5389 7.5 12.7494V13.2352C7.47769 13.3702 7.47769 13.5079 7.5 13.6429V19.6952C7.50003 20.0267 7.63174 20.3446 7.86615 20.579C8.10057 20.8134 8.41849 20.9451 8.75 20.9452H25V22.1952C25 22.9015 24.4563 23.4452 23.75 23.4452H7.5C6.10417 23.4452 5 22.341 5 20.9452V12.0169C5 11.5851 5.22069 11.1874 5.58838 10.9574L10.8179 7.68833C10.9897 7.581 11.1811 7.51865 11.377 7.50278ZM16.333 9.41684L23.0005 12.1952H11.9531L16.333 9.41684ZM10 14.6952H25V18.4452H10V14.6952Z" fill="#FAFAF4"/>
</svg>
