<svg width="30" height="30" viewBox="0 0 30 30" fill="none" xmlns="http://www.w3.org/2000/svg">
<path d="M19.6425 3.00612C19.2874 3.04391 18.9489 3.2546 18.7707 3.62185C18.3408 4.50758 17.8877 6.26673 17.7657 7.85785C16.9083 7.52083 15.9779 7.32888 15.0023 7.32888C14.1609 7.32888 13.3534 7.47259 12.5966 7.72667C12.2318 7.84912 11.8806 7.999 11.5429 8.17312C11.2089 8.34526 10.8915 8.54122 10.5886 8.75922C10.584 8.76253 10.5784 8.76436 10.5738 8.76768L10.5759 8.7698C9.91557 9.24714 9.33488 9.82738 8.85779 10.4879L8.85568 10.4858C8.85144 10.4916 8.84932 10.4989 8.8451 10.5048C8.62961 10.8049 8.43378 11.118 8.26323 11.4485C8.26107 11.4527 8.25904 11.457 8.25688 11.4612C8.0851 11.7956 7.93799 12.1436 7.81678 12.5043L7.81466 12.5086C7.56114 13.2647 7.41899 14.0718 7.41899 14.9122C7.41899 15.8814 7.60876 16.8059 7.94161 17.6586C6.36521 17.7765 4.61802 18.2253 3.731 18.6489C2.99217 19.002 2.87778 20.001 3.53211 20.4939C3.73036 20.6434 4.7741 20.8293 5.09152 21.1456C6.00693 22.061 5.69742 22.3715 6.61284 23.2869C7.52609 24.2001 7.83663 23.8918 8.74988 24.804C9.0673 25.1214 9.25951 26.1821 9.40792 26.3803C9.89867 27.0336 10.8944 26.9223 11.2509 26.1878C11.6788 25.306 12.1314 23.5584 12.2559 21.9729C13.1087 22.3058 14.0331 22.4955 15.0023 22.4955C15.8433 22.4955 16.6493 22.3517 17.406 22.0978C17.7709 21.9753 18.1239 21.8255 18.4618 21.6513C18.7994 21.4773 19.1207 21.2797 19.4266 21.0589L19.4288 21.0567C20.0892 20.5795 20.6696 19.9991 21.1469 19.3386C21.1487 19.3361 21.1493 19.3327 21.1511 19.3302C21.3704 19.0259 21.5684 18.7073 21.7414 18.3717C22.2769 17.333 22.5857 16.1591 22.5857 14.9122C22.5857 13.9383 22.3947 13.0093 22.0588 12.1531C23.6407 12.0377 25.4017 11.5862 26.2927 11.1607C27.0315 10.8076 27.1438 9.80861 26.4895 9.31569C26.2912 9.16619 25.2475 8.98034 24.9301 8.664C24.0146 7.74859 24.3242 7.43814 23.4087 6.52273C22.4955 5.60948 22.1849 5.91992 21.2717 5.00775C20.9543 4.69034 20.7621 3.62967 20.6137 3.43142C20.3683 3.10479 19.9975 2.96834 19.6425 3.00612ZM15.0023 9.49555C17.988 9.49555 20.419 11.9255 20.419 14.9122C20.419 15.1157 20.4071 15.3154 20.3851 15.5131L14.4014 9.53152C14.5993 9.50952 14.7987 9.49555 15.0023 9.49555ZM12.1395 10.3334L19.5811 17.7729C19.1446 18.4689 18.559 19.0545 17.863 19.491L10.4214 12.0515C10.8576 11.3557 11.444 10.77 12.1395 10.3334ZM9.61951 14.3134L15.6011 20.295C15.404 20.3168 15.2051 20.3289 15.0023 20.3289C12.0156 20.3289 9.58566 17.899 9.58566 14.9122C9.58566 14.7094 9.59769 14.5105 9.61951 14.3134Z" fill="#FAFAF4"/>
</svg>
