<svg width="30" height="30" viewBox="0 0 30 30" fill="none" xmlns="http://www.w3.org/2000/svg">
<path d="M16.7502 3.33331V7.99998H13.2502V3.33331H16.7502ZM19.0835 7.99998H23.1668V5.66665C23.1668 4.37793 22.1221 3.33331 20.8335 3.33331H19.0835V7.99998ZM10.9168 7.99998V3.33331H9.16683C7.87819 3.33331 6.8335 4.37793 6.8335 5.66665V7.99998H10.9168ZM16.4002 17.7999L15.9335 18.4222C15.4669 19.0444 14.5335 19.0444 14.0668 18.4222L13.6002 17.7999C12.2782 16.0373 10.2035 15 8.00016 15H6.8335V24.3333C6.8335 25.622 7.87819 26.6666 9.16683 26.6666H20.8335C22.1221 26.6666 23.1668 25.622 23.1668 24.3333V15H22.0002C19.7969 15 17.7221 16.0373 16.4002 17.7999ZM22.0002 12.6666H23.1668V10.3333H19.0835V13.139C20.0162 12.8305 21.0003 12.6666 22.0002 12.6666ZM8.00016 12.6666C8.99998 12.6666 9.98415 12.8305 10.9168 13.139V10.3333H6.8335V12.6666H8.00016ZM15.0002 15.8271C15.5176 15.2417 16.111 14.7372 16.7502 14.3026V10.3333H13.2502V14.3026C13.8893 14.7372 14.4828 15.2417 15.0002 15.8271Z" fill="#FAFAF4"/>
</svg>
