<svg width="30" height="30" viewBox="0 0 30 30" fill="none" xmlns="http://www.w3.org/2000/svg">
<path fill-rule="evenodd" clip-rule="evenodd" d="M19.9906 2.52069C19.9087 2.64351 19.8262 2.79267 19.7498 2.93096L19.3466 3.65957L15.8121 5.3967C15.7169 5.4435 15.6583 5.47228 15.6023 5.50102C13.57 6.54463 12.1381 8.50562 11.707 10.7922C11.6951 10.8552 11.6839 10.9211 11.6652 11.0297L11.6637 11.0387C11.6438 11.1548 11.635 11.206 11.626 11.2553C11.2932 13.0749 10.4299 14.7355 9.16044 16.0127C9.12604 16.0473 9.09008 16.0827 9.00774 16.1637L8.00224 17.1523C7.37222 17.7718 6.86432 18.2712 6.4846 18.7008C6.09699 19.1393 5.78448 19.5681 5.59668 20.0612C5.09523 21.3779 5.26398 22.8701 6.05086 24.0364C6.34599 24.4739 6.74838 24.8184 7.22487 25.1536C7.69142 25.4818 8.2983 25.8473 9.05015 26.3002L9.94143 26.8372C10.693 27.2899 11.3 27.6556 11.806 27.9132C12.321 28.1755 12.8144 28.3707 13.3378 28.4198C14.7346 28.551 16.0864 27.9385 16.9376 26.815C17.2547 26.3965 17.4534 25.9005 17.6223 25.3352C17.7885 24.7789 17.9487 24.0718 18.1482 23.1915L18.4657 21.7901C18.4917 21.6753 18.5032 21.6248 18.5148 21.576C18.9428 19.7791 19.8921 18.1718 21.2261 16.9702C21.2622 16.9377 21.3 16.9044 21.3865 16.8283L21.3934 16.8222C21.4741 16.7512 21.5234 16.7078 21.5702 16.6652C23.2674 15.1188 24.1648 12.8473 24.017 10.5229C24.0129 10.4589 24.0076 10.3922 23.9987 10.2823L23.6716 6.1984L24.1155 5.3961C24.187 5.26703 24.2649 5.12638 24.3226 4.99886C24.3882 4.85394 24.4615 4.65647 24.4724 4.41549C24.4869 4.0937 24.4017 3.77528 24.2283 3.50381C24.0984 3.30051 23.9363 3.16606 23.8071 3.07331C23.6933 2.9917 23.5556 2.90876 23.4292 2.83266L22.41 2.21869C22.2747 2.13712 22.1287 2.04914 21.9964 1.98367C21.8472 1.90989 21.6408 1.82532 21.3863 1.81006C21.0491 1.78983 20.7144 1.87944 20.4324 2.06546C20.2195 2.20588 20.0829 2.38227 19.9906 2.52069ZM19.9788 5.43809L21.8185 6.54634L22.129 10.4227C22.1354 10.5026 22.1393 10.5518 22.1421 10.5894L20.8232 11.029C20.037 11.2911 19.1716 11.1367 18.5246 10.6191C17.2094 9.56696 15.4025 9.37554 13.8961 10.1287L13.8215 10.166C14.3112 8.86161 15.2497 7.78983 16.4588 7.16897C16.4983 7.14868 16.5413 7.12751 16.6477 7.07522L19.9788 5.43809Z" fill="#FAFAF4"/>
</svg>
