<svg width="30" height="30" viewBox="0 0 30 30" fill="none" xmlns="http://www.w3.org/2000/svg">
<path d="M15 3C13.9875 3 12.2872 3.42422 11.5747 4.38672L7.90039 5.8125C4.61289 7.075 2.5 9.99902 2.5 13.249C2.5 13.8353 2.65945 14.3923 2.93945 14.8823C3.1607 15.2686 3.58332 15.5 4.02832 15.5H25.9717C26.4167 15.5 26.8393 15.2686 27.0605 14.8823C27.3405 14.3923 27.5 13.8353 27.5 13.249C27.5 9.99902 25.3871 7.075 22.0996 5.8125L18.4253 4.38672C17.7128 3.42422 16.0125 3 15 3ZM6.27441 18C5.52441 18 4.93662 18.6758 5.03662 19.4258L5.77393 24.5991C5.94893 25.8366 7.01201 26.75 8.24951 26.75H10.9741L10.0244 21.999C9.88691 21.3115 10.326 20.6619 11.001 20.5244C11.6885 20.3869 12.3381 20.826 12.4756 21.501L13.5254 26.75H16.4746L17.5244 21.501C17.6619 20.826 18.3115 20.3869 18.999 20.5244C19.674 20.6619 20.1131 21.3115 19.9756 21.999L19.0259 26.75H21.7749C23.0124 26.75 24.0633 25.8366 24.2383 24.5991L24.9756 19.4258C25.0881 18.6758 24.5003 18 23.7378 18H6.27441Z" fill="#FAFAF4"/>
</svg>
