<svg width="30" height="30" viewBox="0 0 30 30" fill="none" xmlns="http://www.w3.org/2000/svg">
<path d="M12.5001 5C12.5001 3.61924 13.6194 2.5 15.0001 2.5C16.3808 2.5 17.5001 3.61924 17.5001 5C17.5001 6.38069 16.3808 7.5 15.0001 7.5C13.6194 7.5 12.5001 6.38069 12.5001 5ZM24.3144 16.7142L20.6286 25.9285C20.249 26.8776 19.3298 27.5 18.3076 27.5H11.6929C10.6705 27.5 9.7512 26.8776 9.37155 25.9284L5.68586 16.7142C5.35741 15.8932 5.96212 15 6.84645 15H23.1538C24.0381 15 24.6428 15.8932 24.3144 16.7142ZM13.0001 24.9999L12.0002 17.5H8.69276L11.6927 24.9999H13.0001ZM21.3076 17.5H18.0002L17.0002 25H18.3076L21.3076 17.5ZM6.84646 12.5H23.1538C23.3541 12.5 23.5462 12.5413 23.7405 12.5723C23.7413 12.5475 23.7501 12.525 23.7501 12.5C23.7501 11.1192 22.6308 10 21.2501 10C21.2501 8.79914 20.4027 7.79792 19.2738 7.55699C18.399 9.01351 16.8194 10 15.0001 10C13.1809 10 11.6013 9.01353 10.7265 7.55699C9.59753 7.79792 8.75015 8.79913 8.75015 10C7.36946 10 6.25015 11.1192 6.25015 12.5C6.25015 12.525 6.259 12.5475 6.25976 12.5723C6.45408 12.5413 6.64618 12.5 6.84646 12.5Z" fill="#FAFAF4"/>
</svg>
