<svg width="30" height="30" viewBox="0 0 30 30" fill="none" xmlns="http://www.w3.org/2000/svg">
<path d="M15 3C10.4759 3 8.58885 5.61874 7.46875 7.05859C6.96829 7.70192 5.86382 8.79827 4.88477 10.1328C3.90571 11.4674 3 13.1045 3 15C3 18.7833 5.91861 21.8717 6.88867 22.8418C7.12284 23.076 7.84253 24.2132 9.09961 25.1895C10.3567 26.1657 12.2511 27 15 27C17.9391 27 19.6851 26.5181 20.9258 25.627C22.1665 24.7358 22.7611 23.6296 23.6992 22.5566C25.3757 20.6392 27 18.7919 27 15C27 11.6831 26.9244 8.28177 24.8984 5.96484C24.2268 5.19716 23.3327 4.85378 22.5 4.63477C21.6673 4.41575 20.8484 4.30443 20.1602 4.12109C18.517 3.68394 16.9845 3 15 3ZM15 5C16.5055 5 17.8316 5.56988 19.6465 6.05273C20.5012 6.2804 21.3269 6.39337 21.9922 6.56836C22.6575 6.74334 23.1132 6.96389 23.3926 7.2832C24.7506 8.83627 25 11.7489 25 15C25 18.2781 23.8988 19.2897 22.1934 21.2402C21.1144 22.4743 20.5716 23.4188 19.7598 24.002C18.9479 24.5851 17.7279 25 15 25C12.6399 25 11.2748 24.3446 10.3281 23.6094C9.38146 22.8742 8.95457 22.0796 8.30273 21.4277C7.5008 20.6258 5 17.6627 5 15C5 13.7615 5.63815 12.4859 6.49609 11.3164C7.35404 10.1469 8.37929 9.14778 9.04883 8.28711C10.2687 6.71896 11.1681 5 15 5ZM16 10C14.6739 10 13.4021 10.5268 12.4645 11.4645C11.5268 12.4021 11 13.6739 11 15C11 16.3261 11.5268 17.5979 12.4645 18.5355C13.4021 19.4732 14.6739 20 16 20C17.3261 20 18.5979 19.4732 19.5355 18.5355C20.4732 17.5979 21 16.3261 21 15C21 13.6739 20.4732 12.4021 19.5355 11.4645C18.5979 10.5268 17.3261 10 16 10Z" fill="#FAFAF4"/>
</svg>
