<svg width="30" height="30" viewBox="0 0 30 30" fill="none" xmlns="http://www.w3.org/2000/svg">
<path d="M23.6706 5.89876C20.4062 2.81339 15.1981 3.13614 12.0274 6.31851L6.47963 11.8868C5.41363 12.9566 5.41363 14.6914 6.47963 15.7611L14.2004 23.5103C15.2664 24.5801 16.9948 24.5801 18.0608 23.5103L23.8513 17.6984C27.1085 14.4291 27.0483 9.09151 23.6706 5.89876ZM12.9345 14.4861C12.7514 14.6705 12.5109 14.762 12.2705 14.762C12.0312 14.762 11.792 14.6705 11.6089 14.4885C11.242 14.1235 11.2409 13.529 11.6064 13.1629L15.4663 9.28839C15.8319 8.91976 16.4251 8.92214 16.7919 9.28589C17.1588 9.65089 17.1599 10.2454 16.7944 10.6115L12.9345 14.4861ZM20.6549 14.4861L16.7944 18.3606C16.6112 18.545 16.3707 18.6365 16.1304 18.6365C15.8911 18.6365 15.6519 18.545 15.4688 18.363C15.1019 17.998 15.1007 17.4035 15.4663 17.0374L19.3267 13.1629C19.6917 12.7943 20.285 12.7966 20.6524 13.1604C21.0192 13.5254 21.0204 14.12 20.6549 14.4861ZM4.54938 21.573L7.08613 19.0269L10.9465 22.9015L8.40988 25.4474C7.34388 26.5174 5.6155 26.5174 4.5495 25.4474C3.4835 24.3774 3.48338 22.6429 4.54938 21.573Z" fill="#FAFAF4"/>
</svg>
