<svg width="30" height="30" viewBox="0 0 30 30" fill="none" xmlns="http://www.w3.org/2000/svg">
<path d="M25.4283 13.3615L20.6073 10.9505C19.8561 10.5738 18.9579 10.576 18.2026 10.9505L13.3826 13.3615C12.4643 13.8196 11.894 14.7411 11.894 15.7673V21.8166C11.894 22.8428 12.4643 23.7643 13.3815 24.2224L18.2047 26.6345C18.5802 26.8217 18.9928 26.9148 19.4054 26.9148C19.8191 26.9148 20.2317 26.8207 20.6083 26.6334L25.4283 24.2223C26.3466 23.7643 26.9168 22.8428 26.9168 21.8166V15.7673C26.9168 14.7411 26.3466 13.8196 25.4283 13.3615ZM16.5934 21.2024C16.5934 21.4244 16.4138 21.6041 16.1917 21.6041C15.9696 21.6041 15.79 21.4244 15.79 21.2024V20.3989C15.79 20.1769 15.9696 19.9971 16.1917 19.9971C16.4138 19.9971 16.5934 20.1769 16.5934 20.3989V21.2024ZM21.9009 16.7409C21.3565 17.0131 21.0126 17.5694 21.0126 18.1781V21.2024C21.0126 21.6461 20.6529 22.0058 20.2091 22.0058C19.7653 22.0058 19.4056 21.6461 19.4056 21.2024V18.9816C19.4056 18.3729 19.0617 17.8165 18.5174 17.5443L17.1748 16.873C16.9078 16.7395 16.5934 16.9337 16.5934 17.2324V18.792C16.5934 19.014 16.4138 19.1937 16.1917 19.1937C15.9696 19.1937 15.79 19.014 15.79 18.792V17.1738C15.79 16.5651 15.4461 16.0087 14.9016 15.7365L14.2361 15.4037C14.2736 15.3679 14.3023 15.3237 14.3506 15.2997L19.1695 12.8897C19.2436 12.8527 19.325 12.8336 19.4065 12.8336C19.4869 12.8336 19.5662 12.8527 19.6392 12.8886L24.4603 15.2997C24.5083 15.3237 24.5378 15.3678 24.5753 15.4036L21.9009 16.7409ZM9.04184 11.5585V13.6612C9.04184 13.9606 8.79957 14.2029 8.50017 14.2029C8.20077 14.2029 7.95851 13.9606 7.95851 13.6612V11.4794C7.95851 10.6587 7.4948 9.90854 6.76078 9.54149L5.49681 8.90951C5.59255 8.79088 5.70634 8.68569 5.84896 8.61454L12.3479 5.36454C12.5002 5.28837 12.6674 5.25134 12.8335 5.25134C13.0007 5.25134 13.1668 5.28837 13.318 5.36454L19.6219 8.51648C20.2944 8.54557 20.9614 8.70532 21.5742 9.01127L22.5787 9.51373C22.553 8.30337 21.8736 7.22017 20.7871 6.67639L14.2861 3.42639C13.3762 2.97148 12.2897 2.97148 11.3799 3.42639L4.87988 6.67639C3.77221 7.23075 3.0835 8.34477 3.0835 9.58361V17.7393C3.0835 18.9781 3.77221 20.0911 4.87988 20.6455L9.91516 23.1635C9.79224 22.7331 9.72737 22.2808 9.72737 21.8166V15.7673C9.72737 14.2488 10.4271 12.8644 11.5897 11.956L9.82577 11.074C9.46561 10.8939 9.04184 11.1558 9.04184 11.5585ZM9.04184 16.9112C9.04184 17.2106 8.79957 17.4529 8.50017 17.4529C8.20077 17.4529 7.95851 17.2106 7.95851 16.9112V15.8279C7.95851 15.5285 8.20077 15.2862 8.50017 15.2862C8.79957 15.2862 9.04184 15.5285 9.04184 15.8279V16.9112Z" fill="#FAFAF4"/>
</svg>
