<svg width="32" height="32" viewBox="0 0 32 32" fill="none" xmlns="http://www.w3.org/2000/svg">
<path d="M26.6666 3.73328C26.2755 3.73357 25.8919 3.84139 25.558 4.04494C25.224 4.24849 24.9524 4.53995 24.7728 4.88744L21.727 9.32911C21.2697 9.16097 20.7787 9.06661 20.2666 9.06661C19.8421 9.06661 19.4229 9.13129 19.0187 9.26036C18.2272 8.45929 17.1509 7.99994 15.9999 7.99994C14.849 7.99994 13.7726 8.45929 12.9812 9.26036C12.5769 9.13129 12.1578 9.06661 11.7333 9.06661C10.0309 9.06661 8.53356 10.0589 7.85409 11.5874C6.32556 12.2669 5.33326 13.7642 5.33326 15.4666C5.33326 15.8369 5.38646 16.1929 5.47909 16.5333H4.26659C4.1253 16.5308 3.98493 16.5564 3.85363 16.6087C3.72232 16.6609 3.6027 16.7387 3.50172 16.8375C3.40073 16.9364 3.32039 17.0543 3.26536 17.1845C3.21033 17.3146 3.18171 17.4544 3.18116 17.5957C3.18061 17.737 3.20814 17.877 3.26215 18.0076C3.31616 18.1382 3.39558 18.2568 3.49579 18.3564C3.596 18.456 3.715 18.5347 3.84589 18.588C3.97679 18.6413 4.11695 18.668 4.25826 18.6666C4.25826 22.3059 6.54158 25.4046 9.74992 26.6312C9.64758 26.7936 9.59096 26.9806 9.58602 27.1725C9.58109 27.3644 9.62802 27.5541 9.72188 27.7215C9.81574 27.889 9.95304 28.028 10.1193 28.1239C10.2856 28.2199 10.4746 28.2692 10.6666 28.2666H21.3333C21.5255 28.2689 21.7148 28.2192 21.8811 28.1227C22.0474 28.0263 22.1845 27.8867 22.278 27.7187C22.3715 27.5507 22.4179 27.3606 22.4122 27.1684C22.4065 26.9763 22.349 26.7892 22.2458 26.627C25.4478 25.3972 27.7249 22.3013 27.7249 18.6666H27.7333C27.8746 18.6686 28.0149 18.6425 28.1461 18.5898C28.2773 18.5371 28.3967 18.4588 28.4973 18.3596C28.598 18.2603 28.6779 18.1421 28.7325 18.0117C28.787 17.8813 28.8151 17.7413 28.8151 17.5999C28.8151 17.4586 28.787 17.3186 28.7325 17.1882C28.6779 17.0578 28.598 16.9396 28.4973 16.8403C28.3967 16.7411 28.2773 16.6628 28.1461 16.6101C28.0149 16.5574 27.8746 16.5313 27.7333 16.5333H26.5208C26.6134 16.1929 26.6666 15.8369 26.6666 15.4666C26.6666 14.4138 26.2642 13.4561 25.6103 12.7062L24.0478 14.1708C24.3444 14.5313 24.5333 14.9727 24.5333 15.4666C24.5333 15.8572 24.4193 16.2181 24.2353 16.5333H7.76451C7.58053 16.2181 7.46659 15.8572 7.46659 15.4666C7.46659 14.5269 8.07959 13.7115 8.99159 13.4395C9.33399 13.3361 9.60271 13.0673 9.70617 12.7249C9.97817 11.8129 10.7935 11.1999 11.7333 11.1999C12.0885 11.1999 12.4379 11.2965 12.7749 11.4874C13.2709 11.769 13.9001 11.6123 14.2041 11.1312C14.5998 10.5072 15.2693 10.1333 15.9999 10.1333C16.7306 10.1333 17.401 10.5072 17.7978 11.1312C18.1018 11.6123 18.7289 11.769 19.2249 11.4874C19.616 11.2664 20.0292 11.1972 20.4249 11.2291L19.4645 12.6312C19.0773 13.0739 19.1229 13.7471 19.5666 14.1354C19.7671 14.3135 20.017 14.3999 20.2666 14.3999C20.5631 14.3999 20.8596 14.2775 21.0708 14.0354L28.1562 7.40411L28.1499 7.39994C28.3556 7.20101 28.5191 6.96274 28.6307 6.69932C28.7424 6.43591 28.7999 6.15272 28.7999 5.86661C28.7999 5.30081 28.5752 4.75819 28.1751 4.35812C27.775 3.95804 27.2324 3.73328 26.6666 3.73328Z" fill="#FAFAF4"/>
</svg>
