<svg width="30" height="30" viewBox="0 0 30 30" fill="none" xmlns="http://www.w3.org/2000/svg">
<path d="M16.4458 21.2656L21.2655 16.4459C23.0831 14.6283 23.9919 13.7195 23.9919 12.5901C23.9919 11.8335 23.584 11.1758 22.7681 10.2775C22.3662 9.83506 21.8653 9.33421 21.2655 8.73438C20.6657 8.13457 20.1648 7.63368 19.7224 7.23181C18.824 6.41589 18.1664 6.00793 17.4097 6.00793C16.2804 6.00793 15.3716 6.91675 13.554 8.73438L8.73425 13.5541C6.91663 15.3717 6.00781 16.2805 6.00781 17.4099C6.00781 18.1665 6.41577 18.8242 7.23169 19.7225C7.63356 20.1649 8.13445 20.6658 8.73425 21.2656C9.33408 21.8655 9.83494 22.3663 10.2774 22.7682C11.1757 23.5841 11.8334 23.9921 12.59 23.9921C13.7194 23.9921 14.6282 23.0833 16.4458 21.2656Z" fill="#FAFAF4"/>
<path d="M26.3322 3.20261C26.384 3.24933 26.4451 3.31045 26.5673 3.43269C26.6894 3.55474 26.7507 3.61609 26.7974 3.6678C27.8515 4.83561 27.7013 6.65072 26.4695 7.62934C26.4149 7.67271 26.3446 7.72295 26.2039 7.82343L24.3034 9.18097C24.2543 9.12553 24.2051 9.07077 24.1559 9.01665C23.7236 8.54064 23.196 8.01303 22.6169 7.43401L22.5657 7.3828C21.9866 6.8037 21.4589 6.276 20.9829 5.84361C20.9289 5.7946 20.8743 5.74554 20.8191 5.69659L22.1766 3.79608C22.2769 3.65557 22.3273 3.58503 22.3707 3.53048C23.3493 2.29874 25.1644 2.14852 26.3322 3.20261Z" fill="#FAFAF4"/>
<path d="M5.69659 20.8191C5.74554 20.8743 5.7946 20.9289 5.84361 20.9829C6.276 21.4589 6.8037 21.9866 7.3828 22.5657L7.43393 22.6168C8.01296 23.1959 8.54064 23.7236 9.01665 24.1559C9.07077 24.2051 9.12553 24.2543 9.18097 24.3034L7.82343 26.2039C7.72295 26.3446 7.67271 26.4149 7.62934 26.4695C6.65072 27.7013 4.83561 27.8515 3.6678 26.7974C3.61609 26.7507 3.55485 26.6895 3.4328 26.5674C3.31056 26.4452 3.24933 26.384 3.20261 26.3322C2.14852 25.1644 2.29874 23.3493 3.53048 22.3707C3.58503 22.3273 3.65557 22.2769 3.79608 22.1766L5.69659 20.8191Z" fill="#FAFAF4"/>
</svg>
