<svg width="30" height="30" viewBox="0 0 30 30" fill="none" xmlns="http://www.w3.org/2000/svg">
<path d="M19.9562 13.8111C18.3252 13.8111 17.4408 13.4254 16.7292 13.1145C16.1773 12.8729 15.8437 12.7278 14.9943 12.7278C14.145 12.7278 13.8125 12.8729 13.2607 13.1145C12.5502 13.4254 11.6682 13.8111 10.0372 13.8111C8.40616 13.8111 7.52416 13.4254 6.81366 13.1145C6.263 12.8729 5.9305 12.7278 5.0835 12.7278C4.1175 12.7278 3.3335 12.0008 3.3335 11.1028C3.3335 10.2047 4.1175 9.47776 5.0835 9.47776C6.71333 9.47776 7.5965 9.86343 8.307 10.1743C8.85766 10.4159 9.19133 10.5611 10.0372 10.5611C10.8853 10.5611 11.2178 10.4159 11.7697 10.1743C12.4802 9.86343 13.3633 9.47776 14.9943 9.47776C16.6253 9.47776 17.5085 9.86343 18.2202 10.1743C18.772 10.4148 19.1068 10.5611 19.9562 10.5611C20.8055 10.5611 21.1392 10.4159 21.691 10.1743C22.4027 9.86343 23.2858 9.47776 24.9168 9.47776C25.8828 9.47776 26.6668 10.2047 26.6668 11.1028C26.6668 12.0008 25.8828 12.7278 24.9168 12.7278C24.0675 12.7278 23.7338 12.8729 23.182 13.1145C22.4703 13.4254 21.5872 13.8111 19.9562 13.8111ZM24.9168 21.3944C23.2858 21.3944 22.4027 21.7801 21.691 22.091C21.1392 22.3326 20.8055 22.4778 19.9562 22.4778C19.1057 22.4778 18.772 22.3315 18.2202 22.091C17.5085 21.7801 16.6265 21.3944 14.9943 21.3944C13.3622 21.3944 12.4802 21.7801 11.7697 22.091C11.2178 22.3326 10.8853 22.4778 10.0372 22.4778C9.19016 22.4778 8.85766 22.3326 8.307 22.091C7.5965 21.7801 6.71333 21.3944 5.0835 21.3944C4.1175 21.3944 3.3335 22.1213 3.3335 23.0194C3.3335 23.0194 3.3335 24.0464 3.3335 24.6444C3.3335 25.2424 3.85616 25.7278 4.50016 25.7278H25.5002C26.1442 25.7278 26.6668 25.2424 26.6668 24.6444C26.6668 24.0464 26.6668 23.0194 26.6668 23.0194C26.6668 22.1213 25.8828 21.3944 24.9168 21.3944ZM16.0852 7.36526C15.9568 7.35443 15.8402 7.3436 15.7235 7.33276C15.4785 7.3111 15.2452 7.3111 14.9885 7.3111C13.2152 7.3111 12.1068 7.6686 11.1268 8.06943C10.9285 8.14526 10.7535 8.23193 10.5202 8.30776L10.4385 8.32943C10.3452 8.3511 10.1468 8.39443 9.75016 8.39443C9.1785 8.39443 9.05016 8.34026 8.5485 8.13443C8.4435 8.0911 8.3385 8.04776 8.22183 8.00443H8.21016C7.8135 6.57443 7.97683 5.2311 8.01183 5.0036L8.1285 4.1911L8.99183 4.07193C9.37683 4.01776 12.7485 3.62776 14.6735 5.48026C15.2335 6.0111 15.6885 6.61776 16.0385 7.2786C16.0502 7.3111 16.0735 7.33276 16.0852 7.36526ZM21.7785 8.00443C21.6618 8.04776 21.5568 8.0911 21.4518 8.13443C20.9502 8.34026 20.8218 8.39443 20.2502 8.39443C19.8535 8.39443 19.6552 8.3511 19.5852 8.32943C19.4452 8.29693 19.3168 8.24276 19.1768 8.17776L18.7802 8.0261C18.6402 7.46276 18.4302 6.8886 18.1268 6.31443C17.7885 5.67526 17.3685 5.0686 16.8668 4.5161C18.6752 3.79027 20.7168 4.0286 21.0085 4.07193L21.8718 4.1911L21.9885 5.0036C22.0235 5.2311 22.1868 6.58526 21.7785 8.00443ZM24.3335 16.657V18.5496C24.3335 18.9992 24.0395 19.4022 23.5868 19.5603C22.7177 19.8648 21.2722 20.3111 20.2502 20.3111C18.6868 20.3111 17.8702 19.9753 17.1585 19.6828C16.5402 19.4228 16.0618 19.2278 14.9885 19.2278C13.9268 19.2278 13.4602 19.4228 12.8535 19.6719C12.1302 19.9753 11.3135 20.3111 9.75016 20.3111C8.72816 20.3111 7.28266 19.8648 6.4135 19.5603C5.96083 19.4011 5.66683 18.9981 5.66683 18.5496V16.6527C5.66683 15.9366 6.39483 15.4155 7.138 15.6094C7.87533 15.8012 8.80983 15.9778 9.75016 15.9778C11.8035 15.9778 12.9585 15.5011 13.7985 15.1544C14.3118 14.9486 14.4285 14.8944 14.9885 14.8944C15.5718 14.8944 15.7002 14.9486 16.2135 15.1544C17.0535 15.5011 18.1968 15.9778 20.2502 15.9778C21.1917 15.9778 22.1285 15.8023 22.867 15.6127C23.6078 15.422 24.3335 15.9431 24.3335 16.657Z" fill="#FAFAF4"/>
</svg>
