<svg width="30" height="30" viewBox="0 0 30 30" fill="none" xmlns="http://www.w3.org/2000/svg">
<path d="M24.5231 15.2911C23.8458 15.9685 22.747 15.9689 22.0696 15.2915L18.4628 11.6848C18.3711 12.2375 17.9123 12.6666 17.3335 12.6666C16.6891 12.6666 16.1668 12.1443 16.1668 11.5V9.38881L14.7086 7.93055C14.0312 7.25315 14.0312 6.15485 14.7086 5.47745C15.386 4.80004 16.4847 4.79961 17.1621 5.47701L24.5231 12.838C25.2005 13.5154 25.2005 14.6137 24.5231 15.2911ZM21.2459 16.1177L18.5879 13.4596C18.2256 13.6977 17.7938 13.8333 17.3335 13.8333C16.0472 13.8333 15.0002 12.7863 15.0002 11.5V9.87188L13.8836 8.75535C13.7738 8.64533 13.6839 8.52371 13.5954 8.40166C13.4077 8.48561 13.2274 8.59428 13.0733 8.74837C12.3959 9.42577 12.3955 10.5245 13.0729 11.2019L18.5002 16.6291V22C18.5002 22.6443 19.0225 23.1667 19.6668 23.1667C20.3112 23.1667 20.8335 22.6443 20.8335 22V17.2047C20.9796 17.1263 21.1279 17.0506 21.2513 16.9272C21.4049 16.7736 21.5136 16.5933 21.5976 16.4061C21.4756 16.3174 21.3547 16.2262 21.2459 16.1177ZM13.475 13.2538L3.67529 23.0535C3.21957 23.5092 3.21957 24.248 3.67529 24.7037L5.29641 26.3249C5.75213 26.7806 6.49091 26.7806 6.94665 26.3249L16.7464 16.5251L13.475 13.2538ZM26.6655 10.7863C26.6637 10.3448 26.4956 9.90358 26.1588 9.56669L20.4334 3.84131C19.756 3.16398 18.6578 3.16398 17.9804 3.84131C17.8265 3.9952 17.7176 4.17577 17.6336 4.36327C17.7558 4.45206 17.8774 4.54242 17.9875 4.65266L25.3475 12.0127C25.8955 12.5607 26.1974 13.2899 26.1974 14.0646C26.1974 14.8393 25.8955 15.5685 25.3463 16.1165C25.0547 16.4088 24.7087 16.6249 24.3335 16.7685V18.5C24.3335 19.1443 24.8558 19.6667 25.5002 19.6667C26.1445 19.6667 26.6668 19.1443 26.6668 18.5V10.786L26.6655 10.7863Z" fill="#FAFAF4"/>
</svg>
