<svg width="30" height="30" viewBox="0 0 30 30" fill="none" xmlns="http://www.w3.org/2000/svg">
<path d="M7.49998 3C5.44998 3 3.43709 3.66348 3.34959 3.68848C2.94959 3.82598 2.6366 4.16221 2.5366 4.57471C2.4366 4.98721 2.5491 5.42432 2.8491 5.73682C3.5741 6.49932 3.9991 7.63701 4.4116 8.74951C5.1241 10.637 5.99998 12.9875 8.74998 13C9.65331 13 10.8742 12.393 11.7114 11.7354C12.8082 12.45 13.75 13.1561 13.75 15.5H4.99998C4.30998 15.5 3.74998 16.06 3.74998 16.75V17.4775C3.74998 24.1225 9.94164 26.4153 12.3266 26.7378L12.4121 26.75L17.6562 26.7354C18.7275 26.7354 26.25 24.895 26.25 17.4775V16.75C26.25 16.06 25.69 15.5 25 15.5H16.25C16.25 13.9878 17.3586 12.8965 18.4643 11.8794C19.2922 12.4794 20.4124 13 21.25 13C24 12.9875 24.8759 10.637 25.5884 8.74951C26.0009 7.63701 26.4259 6.49932 27.1509 5.73682C27.4509 5.42432 27.5634 4.98721 27.4634 4.57471C27.3634 4.16221 27.0504 3.82598 26.6504 3.68848C26.5629 3.66348 24.55 3 22.5 3C19.4 3 16.25 4.7125 16.25 8C16.25 8.81541 16.4558 9.44859 16.7383 9.96777C16.2285 10.4119 15.6455 10.9869 15.1172 11.6938C14.5642 10.8655 13.9116 10.2627 13.3374 9.82129C13.5794 9.32935 13.75 8.74065 13.75 8C13.75 4.7125 10.6 3 7.49998 3Z" fill="#FAFAF4"/>
</svg>
