<svg width="30" height="30" viewBox="0 0 30 30" fill="none" xmlns="http://www.w3.org/2000/svg">
<path d="M26.6668 22C26.6668 24.5773 24.5775 26.6667 22.0002 26.6667H8.00016C5.4228 26.6667 3.3335 24.5773 3.3335 22H26.6668ZM11.0877 10.7959C10.8599 11.0238 10.8599 11.3929 11.0877 11.6208L12.8377 13.3708C12.9517 13.4847 13.1009 13.5417 13.2502 13.5417C13.3994 13.5417 13.5487 13.4847 13.6626 13.3708C13.8905 13.1429 13.8905 12.7738 13.6626 12.5459L11.9126 10.7959C11.6847 10.568 11.3156 10.568 11.0877 10.7959ZM17.3335 8.58333C17.4827 8.58333 17.632 8.52636 17.7459 8.41244L19.4959 6.66244C19.7238 6.43458 19.7238 6.06543 19.4959 5.83757C19.2681 5.60971 18.8989 5.60971 18.6711 5.83757L16.9211 7.58757C16.6932 7.81543 16.6932 8.18458 16.9211 8.41244C17.035 8.52637 17.1842 8.58333 17.3335 8.58333ZM6.8335 12.6667C6.98275 12.6667 7.132 12.6097 7.24594 12.4958L8.99594 10.7458C9.2238 10.5179 9.2238 10.1488 8.99594 9.9209C8.76807 9.69304 8.39893 9.69304 8.17107 9.9209L6.42107 11.6709C6.19321 11.8988 6.19321 12.2679 6.42107 12.4958C6.535 12.6097 6.68424 12.6667 6.8335 12.6667ZM20.9911 16.7355C23.2015 15.4108 23.746 12.4222 23.8801 11.0301C23.9016 10.8078 23.6327 10.6889 23.4805 10.8523C23.0008 11.3673 22.1467 12.0503 20.9911 12.0503C18.6449 12.0503 16.8852 12.0483 16.2987 13.806C15.5567 16.0294 18.0584 18.4932 20.9911 16.7355ZM12.3618 7.87403C12.4474 7.85153 12.5184 7.78054 12.5409 7.69502C12.8567 6.49146 12.5809 5.2041 11.6884 4.31173C10.7961 3.41929 9.50862 3.14343 8.30514 3.45931C8.21962 3.48174 8.14862 3.5528 8.12613 3.63832C7.81025 4.84181 8.08611 6.12924 8.97855 7.02161C9.87092 7.91405 11.1584 8.18984 12.3618 7.87403ZM21.4168 9.16666C21.739 9.16666 22.0002 8.90547 22.0002 8.58333C22.0002 8.26112 21.739 8 21.4168 8C21.0947 8 20.8335 8.26112 20.8335 8.58333C20.8335 8.90547 21.0947 9.16666 21.4168 9.16666ZM6.25015 15C6.57229 15 6.83348 14.7388 6.83348 14.4167C6.83348 14.0945 6.57229 13.8333 6.25015 13.8333C5.92801 13.8333 5.66682 14.0945 5.66682 14.4167C5.66682 14.7388 5.92801 15 6.25015 15ZM22.5835 18.5H22.5348C22.4196 18.579 22.3118 18.6636 22.1893 18.737C21.1536 19.3579 20.0542 19.6667 18.9923 19.6667H24.2264C23.9854 18.9886 23.3443 18.5 22.5835 18.5ZM9.75015 16.1667H14.1016C14.4021 17.0715 14.9527 17.9004 15.7327 18.5262C16.6784 19.285 17.8109 19.6667 18.9923 19.6667H14.4608C14.6254 19.5635 14.7409 19.3891 14.7409 19.1805C14.7409 18.8584 14.4797 18.5972 14.1575 18.5972C13.8354 18.5972 13.5742 18.8584 13.5742 19.1805C13.5742 19.3891 13.6897 19.5635 13.8543 19.6667H5.77391C6.01494 18.9886 6.65595 18.5 7.41681 18.5H8.10724C8.04208 18.3167 8.00014 18.1223 8.00014 17.9167C8.00014 16.9502 8.78365 16.1667 9.75015 16.1667ZM10.3335 17.9167C10.3335 18.2388 10.5947 18.5 10.9168 18.5C11.239 18.5 11.5002 18.2388 11.5002 17.9167C11.5002 17.5945 11.239 17.3333 10.9168 17.3333C10.5947 17.3333 10.3335 17.5945 10.3335 17.9167Z" fill="#FAFAF4"/>
</svg>
