<svg width="32" height="32" viewBox="0 0 32 32" fill="none" xmlns="http://www.w3.org/2000/svg">
<path d="M13.8666 4.26666C12.3573 4.26666 11.0976 5.31293 10.7541 6.71666C10.5408 7.59133 9.67972 7.37973 9.07492 7.53333C8.61199 7.65066 8.21917 7.93413 7.93117 8.3C11.9226 9.61946 15.0218 12.0613 15.1978 12.2021L17.2812 13.8667H18.9478L19.4249 12.9125C19.5113 12.7397 21.1725 9.53716 25.0103 8.12916C24.7255 7.82943 24.3555 7.61048 23.9416 7.51875C23.5725 7.43661 23.2179 7.4541 22.8937 7.54583C22.579 7.63543 22.2365 7.49135 22.0999 7.19375C21.5933 6.09615 20.4885 5.33333 19.1999 5.33333C18.7327 5.33333 18.2905 5.43426 17.8916 5.61666C17.3039 5.8844 16.63 5.74855 16.1895 5.27708C15.6092 4.65521 14.785 4.26666 13.8666 4.26666ZM15.9999 7.46666C16.5887 7.46666 17.0666 7.94453 17.0666 8.53333C17.0666 9.12213 16.5887 9.6 15.9999 9.6C15.4111 9.6 14.9333 9.12213 14.9333 8.53333C14.9333 7.94453 15.4111 7.46666 15.9999 7.46666ZM3.19992 9.6C3.19992 12.8 4.26659 13.8667 4.26659 13.8667H13.8666C13.8666 13.8667 8.53326 9.6 3.19992 9.6ZM28.7999 9.6C23.4666 9.6 21.3333 13.8667 21.3333 13.8667H27.7333C27.7333 13.8667 28.7999 12.8 28.7999 9.6ZM4.26659 16C4.1253 15.9975 3.98493 16.0231 3.85363 16.0754C3.72232 16.1276 3.6027 16.2054 3.50172 16.3043C3.40073 16.4031 3.32039 16.521 3.26536 16.6512C3.21033 16.7813 3.18171 16.9211 3.18116 17.0624C3.18061 17.2037 3.20814 17.3438 3.26215 17.4743C3.31616 17.6049 3.39558 17.7235 3.49579 17.8231C3.596 17.9227 3.715 18.0015 3.84589 18.0547C3.97679 18.108 4.11695 18.1347 4.25826 18.1333C4.25826 21.7727 6.54158 24.8713 9.74992 26.0979C9.64758 26.2603 9.59096 26.4473 9.58602 26.6392C9.58109 26.8311 9.62802 27.0208 9.72188 27.1882C9.81574 27.3557 9.95304 27.4947 10.1193 27.5906C10.2856 27.6866 10.4746 27.7359 10.6666 27.7333H21.3333C21.5255 27.7356 21.7148 27.6859 21.8811 27.5894C22.0474 27.493 22.1845 27.3534 22.278 27.1854C22.3715 27.0174 22.4178 26.8273 22.4122 26.6351C22.4065 26.443 22.349 26.2559 22.2458 26.0937C25.4478 24.8639 27.7249 21.768 27.7249 18.1333H27.7333C27.8746 18.1353 28.0149 18.1092 28.1461 18.0565C28.2773 18.0038 28.3967 17.9255 28.4973 17.8263C28.598 17.7271 28.6779 17.6088 28.7325 17.4784C28.787 17.348 28.8151 17.208 28.8151 17.0667C28.8151 16.9253 28.787 16.7854 28.7325 16.6549C28.6779 16.5245 28.598 16.4063 28.4973 16.307C28.3967 16.2078 28.2773 16.1295 28.1461 16.0768C28.0149 16.0241 27.8746 15.998 27.7333 16H4.26659Z" fill="#FAFAF4"/>
</svg>
