<svg width="30" height="30" viewBox="0 0 30 30" fill="none" xmlns="http://www.w3.org/2000/svg">
<path d="M15 3C8.383 3 3 8.383 3 15C3 17.0023 3.50021 18.8874 4.37109 20.5488C3.53852 21.2133 3 22.2305 3 23.3711C3 25.3625 4.63746 27 6.62891 27C7.76949 27 8.78667 26.4615 9.45117 25.6289C11.1126 26.4998 12.9977 27 15 27C21.617 27 27 21.617 27 15C27 12.9977 26.4998 11.1126 25.6289 9.45117C26.4615 8.78667 27 7.76949 27 6.62891C27 4.63746 25.3625 3 23.3711 3C22.2305 3 21.2133 3.53852 20.5488 4.37109C18.8874 3.50021 17.0023 3 15 3ZM15.0703 5C15.8363 5.02569 16.5564 5.59209 16.8066 6.29297C16.7816 6.90497 16.4463 7.38203 15.1973 7.70703C14.3143 7.95803 13.499 7.24564 13.373 6.55664C13.247 5.86764 13.8592 5.18044 14.7402 5.02344C14.8504 5.00394 14.9609 4.99633 15.0703 5ZM23.3711 5C24.2777 5 25 5.72235 25 6.62891C25 7.07366 24.8175 7.45735 24.5352 7.74609C23.8795 6.8863 23.1137 6.12048 22.2539 5.46484C22.5426 5.1825 22.9263 5 23.3711 5ZM9.74805 7.73047C9.87541 7.72184 10.0089 7.72223 10.1387 7.74023C10.2907 7.75623 10.9785 7.95117 10.9785 7.95117C11.4295 8.13017 11.821 8.39091 12.123 8.62891L12.5547 9.03125C13.0497 9.59825 13.2111 10.2469 13.2031 10.7129C13.0821 10.6109 12.911 10.5155 12.668 10.4375C12.149 10.2705 11.044 10.1447 10.623 10.5547C10.638 10.2917 10.6063 9.71273 10.1113 9.30273C9.75033 9.00273 8.99164 8.84428 8.55664 9.36328C8.12564 9.87628 8.0617 10.3854 8.0957 10.5684C8.1317 10.7634 8.08316 10.8727 8.03516 10.9297C7.96816 11.0097 7.86477 11.036 7.75977 11.002C7.63077 10.961 7.48383 10.819 7.42383 10.543C7.30183 10.505 7.2063 10.4227 7.1543 10.3047C7.0093 9.97669 7.20248 9.42258 7.64648 8.89258C8.07048 8.38558 8.53706 8.04419 9.03906 7.86719C9.03906 7.86719 9.36597 7.75634 9.74805 7.73047ZM20.4219 8.14062C20.7337 8.15194 20.9681 8.21483 21.0781 8.33008C21.5171 8.79108 21.1415 11.3357 19.8105 12.6367C18.4795 13.9377 17.0937 13.878 16.2617 13.043C15.4477 12.183 15.5333 10.8264 16.8633 9.52539C17.8608 8.54964 19.4862 8.10669 20.4219 8.14062ZM19.1348 10.0957C18.718 10.0808 17.9955 10.2786 17.5508 10.7129C16.9588 11.2919 16.9183 11.8953 17.2812 12.2793C17.6432 12.6623 18.2703 12.6786 18.8633 12.0996C19.4553 11.5206 19.6237 10.3886 19.4277 10.1816C19.3787 10.1304 19.2737 10.1007 19.1348 10.0957ZM11.5566 10.7285C11.9053 10.7255 12.2913 10.783 12.5703 10.873C12.9463 10.994 13.1586 11.1708 13.1836 11.3828C13.2756 12.1588 12.8126 13.1417 11.7676 14.3867C11.5876 14.6017 11.4638 14.695 11.3398 14.707C11.2298 14.718 11.1431 14.6715 11.0781 14.6035C11.0671 14.6215 11.055 14.6383 11.041 14.6543C10.936 14.7803 10.8207 14.7738 10.7617 14.7578C10.5637 14.7048 10.2946 14.3249 10.2266 14.0059C10.0936 13.3739 9.87228 12.3263 10.7383 10.9883C10.7453 10.9773 10.7547 10.9661 10.7637 10.9551C10.8972 10.7961 11.208 10.7315 11.5566 10.7285ZM11.4766 12.6543C11.4251 12.6567 11.3751 12.6694 11.3295 12.6915C11.2839 12.7136 11.2436 12.7448 11.2109 12.7832C11.1789 12.8212 11.1549 12.8653 11.1405 12.9132C11.1261 12.9611 11.1215 13.0117 11.1269 13.0622C11.1324 13.1126 11.1478 13.1619 11.1722 13.2072C11.1967 13.2525 11.2298 13.293 11.2695 13.3262C11.3495 13.3929 11.4515 13.4265 11.5534 13.4196C11.6552 13.4126 11.7484 13.3657 11.8125 13.2891C11.8767 13.2125 11.9065 13.1125 11.8955 13.0111C11.8845 12.9097 11.8336 12.8151 11.7539 12.748C11.6757 12.6828 11.5763 12.6492 11.4766 12.6543ZM23.2129 14.0352C24.0887 14.0649 24.9101 14.7285 25.1953 15.5527C25.5243 16.4937 24.3644 16.8131 23.3574 16.9961C22.3504 17.1801 21.4155 16.6713 21.2715 15.8613C21.1285 15.0523 21.8289 14.2465 22.8359 14.0625C22.9618 14.0395 23.0878 14.0309 23.2129 14.0352ZM6.67383 14.6602C7.11614 14.6315 8.12555 14.6975 9.12305 15.6875C10.436 17.0135 10.1836 18.4004 10.1836 18.4004C10.1836 18.4004 10.1749 18.4217 10.1699 18.4297C10.1519 18.4577 10.1078 18.4782 10.0508 18.4922C9.73678 18.6632 8.72964 19.088 7.30664 18.457C5.60564 17.703 5.38281 16.3047 5.38281 16.3047L6.76562 16.918C6.33962 16.459 6.13525 16.0375 6.28125 15.8125C6.44425 15.5595 7.0035 15.6258 7.6875 15.9258L6.44141 14.6895C6.44141 14.6895 6.52639 14.6697 6.67383 14.6602ZM16.0586 17.9941C16.3556 17.9941 16.5135 18.031 16.6055 18.123C16.6865 18.204 16.7045 18.3034 16.6895 18.4004C16.7115 18.3974 16.7339 18.3965 16.7559 18.3965C16.9289 18.3965 16.976 18.485 17 18.543C17 18.543 16.497 19.3971 16.498 19.3711C16.059 19.9021 15.5793 20.8936 13.9043 21.0996C13.8903 21.1016 13.8763 21.1035 13.8613 21.1035C13.4233 21.1025 12.8312 20.2809 12.6172 19.7129C12.5662 19.3559 12.6296 19.1865 12.7676 18.9355C13.3526 18.3415 14.3436 17.9941 16.0586 17.9941ZM15.1133 18.6973C14.8933 18.6973 14.7091 18.8804 14.7031 19.1074C14.6971 19.3334 14.8698 19.5176 15.0898 19.5176C15.3098 19.5176 15.494 19.3344 15.5 19.1074C15.507 18.8804 15.3333 18.6973 15.1133 18.6973ZM20.8398 18.793C21.6588 18.792 22.3223 19.4986 22.3223 20.5566C22.3223 21.6136 21.4224 22.754 20.4434 22.918C19.4644 23.081 19.5664 21.6156 19.5664 20.5566C19.5664 19.4976 20.0208 18.793 20.8398 18.793ZM12.0293 19.3359C12.0243 19.5009 12.0564 19.7022 12.1504 19.9492C12.3494 20.4762 12.9631 21.4439 13.5781 21.5059C13.3491 21.6709 12.8891 22.0849 12.8691 22.7559C12.8551 23.2459 13.1561 23.9414 13.8711 23.9414C14.5761 23.9414 15.1044 23.6676 15.2344 23.5176C15.3724 23.3576 15.4933 23.3242 15.5723 23.3242C15.6813 23.3242 15.7705 23.3881 15.8125 23.4941C15.8625 23.6251 15.8414 23.8383 15.6504 24.0723C15.6984 24.1963 15.691 24.3263 15.627 24.4473C15.448 24.7823 14.8618 25 14.1328 25C13.4358 25 12.85 24.8572 12.377 24.5742C12.377 24.5742 11.8337 24.2442 11.5547 23.7812C11.4687 23.6493 11.1836 22.9668 11.1836 22.9668C11.0396 22.4858 10.998 21.9987 11 21.5977L11.0547 20.9824C11.2157 20.2124 11.6363 19.6419 12.0293 19.3359ZM5.46484 22.2539C6.12048 23.1137 6.8863 23.8795 7.74609 24.5352C7.45735 24.8175 7.07366 25 6.62891 25C5.72235 25 5 24.2777 5 23.3711C5 22.9263 5.1825 22.5426 5.46484 22.2539Z" fill="#FAFAF4"/>
</svg>
