<svg width="30" height="30" viewBox="0 0 30 30" fill="none" xmlns="http://www.w3.org/2000/svg">
<path d="M27.1338 15.9238C26.965 15.7551 22.955 11.8076 17.5 11.8076C14.0425 11.8076 11.56 13.6013 9.815 15.7326C9.89125 14.8638 9.95375 13.9838 9.98 13.1026C10.0013 12.3951 9.4375 11.8076 8.72875 11.8076C8.05875 11.8076 7.50125 12.3376 7.48125 13.0076C7.40375 15.6226 7.085 18.0401 6.72 19.7288C6.70875 19.7788 6.72125 19.8276 6.7175 19.8776C5.91625 19.1651 5 17.8501 5 15.5576C5 11.4613 8.105 7.85006 9.765 6.21256C10.2575 7.01381 10.9037 8.17506 11.4437 9.51381C11.7037 10.1601 12.4325 10.4626 13.0737 10.1913C13.0812 10.1876 13.0887 10.1851 13.0963 10.1813C13.7163 9.92006 14.0112 9.20756 13.7612 8.58381C12.625 5.75506 11.1013 3.69381 11 3.55756C10.5725 2.92256 9.99125 2.80631 9.21875 3.33131C8.945 3.55131 2.5 8.78506 2.5 15.5576C2.5 19.1726 4.195 21.1363 5.53 22.1238C4.85625 23.2213 4.36 24.2813 4.065 25.1813C3.8025 25.9851 4.39625 26.8076 5.24125 26.8076C5.7875 26.8076 6.25625 26.4513 6.42 25.9301C6.56875 25.4601 6.815 24.8863 7.145 24.2613C7.14875 24.2626 7.14625 24.2626 7.15 24.2638C7.3075 23.9576 7.49125 23.6488 7.67625 23.3413C9.1625 20.9413 11.74 18.1513 15.0612 17.1763C15.2887 17.1126 15.5163 17.0501 15.75 17.0026C15.8788 16.9751 16.0087 16.9513 16.14 16.9301C16.8625 16.8626 17.5 17.4351 17.5 18.1713C17.5 18.7788 17.0612 19.2938 16.4625 19.3938C13.4688 19.8938 11.1038 22.4826 9.71875 24.9326C11.1825 25.2501 13.0925 25.5576 15 25.5576C21.9188 25.5576 24.7725 21.2776 27.29 17.5013C27.7588 16.8301 27.6562 16.3913 27.1338 15.9238Z" fill="#FAFAF4"/>
</svg>
