<svg width="30" height="30" viewBox="0 0 30 30" fill="none" xmlns="http://www.w3.org/2000/svg">
<path d="M10 26.4062C9.99999 27.0108 10.4897 27.5 11.0938 27.5C20.1407 27.5 27.5 20.1407 27.5 11.0937C27.5 10.4892 27.0108 10 26.4062 10H11.0938C10.4898 10 10.0001 10.4892 10 11.0937L10 26.4062ZM22.5781 12.1875H25.2709C25.1989 13.1283 25.0279 14.0407 24.7811 14.9219H22.5781V12.1875ZM22.5781 17.1094H23.9757C23.5867 17.939 23.1134 18.7202 22.5781 19.4535V17.1094ZM17.1094 12.1875H20.3906V14.9219H17.1094V12.1875ZM17.1094 17.1094H20.3906V20.3906H17.1094L17.1094 17.1094ZM17.1094 22.5781H19.4536C18.7203 23.1134 17.9391 23.5868 17.1094 23.9758V22.5781ZM12.1876 12.1875H14.9219L14.9219 14.9219H12.1876V12.1875ZM12.1876 17.1094H14.9219L14.9219 20.3906H12.1875L12.1876 17.1094ZM14.9219 22.5781V24.7811C14.0407 25.0279 13.1284 25.1988 12.1876 25.2708L12.1875 22.5781H14.9219ZM7.5 11.0937C7.5 9.11255 9.11255 7.5 11.0937 7.5H20V3.59383C20 2.9898 19.5108 2.50007 18.9062 2.5L3.59375 2.50008C2.9892 2.5 2.5 2.98973 2.5 3.59383C2.5 8.21014 4.42116 12.3815 7.5 15.3655V11.0937ZM15.0781 4.68758H17.8125V7.42195L15.0781 7.42188V4.68758ZM9.60938 4.6875L12.8906 4.68758V7.42195L9.60938 7.42188V4.6875ZM7.42188 11.9536C6.88653 11.2202 6.41327 10.4391 6.02425 9.60938H7.42188V11.9536ZM5.21889 7.42188C4.97215 6.54075 4.80117 5.62836 4.72916 4.68758L7.42188 4.6875V7.42188H5.21889Z" fill="#FAFAF4"/>
</svg>
