<svg width="14" height="14" viewBox="0 0 14 14" fill="none" xmlns="http://www.w3.org/2000/svg">
<path d="M4.95817 11.0837H4.6665C2.33317 11.0837 1.1665 10.5003 1.1665 7.58366V4.66699C1.1665 2.33366 2.33317 1.16699 4.6665 1.16699H9.33317C11.6665 1.16699 12.8332 2.33366 12.8332 4.66699V7.58366C12.8332 9.91699 11.6665 11.0837 9.33317 11.0837H9.0415C8.86067 11.0837 8.68567 11.1712 8.57484 11.317L7.69984 12.4837C7.31484 12.997 6.68484 12.997 6.29984 12.4837L5.42484 11.317C5.3315 11.1887 5.11567 11.0837 4.95817 11.0837Z" stroke="#FAFAF4" stroke-width="1.5" stroke-miterlimit="10" stroke-linecap="round" stroke-linejoin="round"/>
<path d="M9.33143 6.41667H9.33667" stroke="#FAFAF4" stroke-width="2" stroke-linecap="round" stroke-linejoin="round"/>
<path d="M6.9972 6.41667H7.00244" stroke="#FAFAF4" stroke-width="2" stroke-linecap="round" stroke-linejoin="round"/>
<path d="M4.66346 6.41667H4.6687" stroke="#FAFAF4" stroke-width="2" stroke-linecap="round" stroke-linejoin="round"/>
</svg>
